<svg width="268" height="170" viewBox="0 0 268 170" fill="none" xmlns="http://www.w3.org/2000/svg">
<g clip-path="url(#clip0_925_16323)">
<rect width="268" height="230" rx="17" fill="#FDFDFD"/>
<g opacity="0.5" filter="url(#filter0_d_925_16323)">
<rect x="55.3994" y="-8.56055" width="159.482" height="30.3748" rx="10" fill="white"/>
<rect x="62.3027" y="-1.65723" width="16.5681" height="16.5681" rx="2.76135" fill="#8F92FF"/>
<path d="M86.6739 3.33089H89.2778C90.6481 3.33089 91.6138 4.29156 91.6138 5.6719C91.6138 7.05729 90.638 8.02302 89.2677 8.02302H87.584V10.627H86.6739V3.33089ZM87.584 4.13988V7.21403H89.0402C90.0818 7.21403 90.6784 6.64268 90.6784 5.6719C90.6784 4.70617 90.0868 4.13988 89.0402 4.13988H87.584ZM92.3168 10.627V5.36853H93.146V6.22808H93.1662C93.3382 5.64662 93.8235 5.27752 94.4404 5.27752C94.5921 5.27752 94.7235 5.3028 94.7943 5.31291V6.1674C94.7235 6.14212 94.5365 6.11684 94.3241 6.11684C93.6415 6.11684 93.1966 6.60729 93.1966 7.35055V10.627H92.3168ZM95.3507 10.627V5.36853H96.2305V10.627H95.3507ZM95.7906 4.4837C95.4923 4.4837 95.2445 4.23594 95.2445 3.93763C95.2445 3.63426 95.4923 3.39156 95.7906 3.39156C96.094 3.39156 96.3417 3.63426 96.3417 3.93763C96.3417 4.23594 96.094 4.4837 95.7906 4.4837ZM97.2116 10.627V5.36853H98.0408V6.20785H98.061C98.3543 5.64156 98.9155 5.27752 99.7296 5.27752C100.882 5.27752 101.55 6.02077 101.55 7.21403V10.627H100.67V7.37077C100.67 6.52134 100.271 6.05617 99.4616 6.05617C98.6324 6.05617 98.0914 6.64268 98.0914 7.53257V10.627H97.2116ZM106.834 7.09268H105.974C105.848 6.52134 105.403 6.05111 104.629 6.05111C103.719 6.05111 103.102 6.80448 103.102 7.99774C103.102 9.22134 103.729 9.94437 104.639 9.94437C105.357 9.94437 105.828 9.56516 105.979 8.93313H106.844C106.707 9.97976 105.828 10.718 104.634 10.718C103.178 10.718 102.207 9.69156 102.207 7.99774C102.207 6.33931 103.173 5.27752 104.624 5.27752C105.939 5.27752 106.722 6.14718 106.834 7.09268ZM109.554 6.041C108.73 6.041 108.154 6.67302 108.098 7.54774H110.955C110.934 6.66797 110.383 6.041 109.554 6.041ZM110.934 9.12021H111.799C111.647 10.0404 110.757 10.718 109.61 10.718C108.103 10.718 107.188 9.67134 107.188 8.01796C107.188 6.38482 108.118 5.27752 109.569 5.27752C110.99 5.27752 111.865 6.30898 111.865 7.90167V8.23538H108.093V8.28594C108.093 9.29212 108.684 9.95448 109.63 9.95448C110.297 9.95448 110.788 9.61572 110.934 9.12021ZM112.831 4.09943H113.711V5.36853H114.732V6.09156H113.711V9.21628C113.711 9.69662 113.913 9.91403 114.363 9.91403C114.464 9.91403 114.666 9.89886 114.727 9.88875V10.627C114.621 10.6522 114.378 10.6674 114.171 10.6674C113.205 10.6674 112.831 10.273 112.831 9.26178V6.09156H112.047V5.36853H112.831V4.09943ZM117.493 10.718C116.037 10.718 115.056 9.67134 115.056 7.99774C115.056 6.31909 116.037 5.27752 117.493 5.27752C118.944 5.27752 119.925 6.31909 119.925 7.99774C119.925 9.67134 118.944 10.718 117.493 10.718ZM117.493 9.94437C118.423 9.94437 119.03 9.2365 119.03 7.99774C119.03 6.75898 118.423 6.05111 117.493 6.05111C116.562 6.05111 115.951 6.75898 115.951 7.99774C115.951 9.2365 116.562 9.94437 117.493 9.94437ZM120.608 10.627V5.36853H121.437V6.20785H121.457C121.75 5.64156 122.311 5.27752 123.126 5.27752C124.278 5.27752 124.946 6.02077 124.946 7.21403V10.627H124.066V7.37077C124.066 6.52134 123.667 6.05617 122.858 6.05617C122.028 6.05617 121.487 6.64268 121.487 7.53257V10.627H120.608ZM128.824 3.33089V8.00785C128.824 9.1101 129.547 9.90898 130.811 9.90898C132.075 9.90898 132.798 9.1101 132.798 8.00785V3.33089H133.709V8.06853C133.709 9.62583 132.621 10.7483 130.811 10.7483C129.001 10.7483 127.914 9.62583 127.914 8.06853V3.33089H128.824ZM134.781 10.627V5.36853H135.61V6.20785H135.63C135.923 5.64156 136.485 5.27752 137.299 5.27752C138.451 5.27752 139.119 6.02077 139.119 7.21403V10.627H138.239V7.37077C138.239 6.52134 137.84 6.05617 137.031 6.05617C136.201 6.05617 135.66 6.64268 135.66 7.53257V10.627H134.781ZM140.08 10.627V5.36853H140.959V10.627H140.08ZM140.52 4.4837C140.221 4.4837 139.974 4.23594 139.974 3.93763C139.974 3.63426 140.221 3.39156 140.52 3.39156C140.823 3.39156 141.071 3.63426 141.071 3.93763C141.071 4.23594 140.823 4.4837 140.52 4.4837ZM146.253 5.36853L144.322 10.627H143.422L141.486 5.36853H142.411L143.862 9.69156H143.882L145.338 5.36853H146.253ZM148.696 6.041C147.872 6.041 147.295 6.67302 147.24 7.54774H150.096C150.076 6.66797 149.525 6.041 148.696 6.041ZM150.076 9.12021H150.941C150.789 10.0404 149.899 10.718 148.751 10.718C147.245 10.718 146.33 9.67134 146.33 8.01796C146.33 6.38482 147.26 5.27752 148.711 5.27752C150.132 5.27752 151.006 6.30898 151.006 7.90167V8.23538H147.235V8.28594C147.235 9.29212 147.826 9.95448 148.772 9.95448C149.439 9.95448 149.93 9.61572 150.076 9.12021ZM151.689 10.627V5.36853H152.518V6.22808H152.539C152.711 5.64662 153.196 5.27752 153.813 5.27752C153.965 5.27752 154.096 5.3028 154.167 5.31291V6.1674C154.096 6.14212 153.909 6.11684 153.697 6.11684C153.014 6.11684 152.569 6.60729 152.569 7.35055V10.627H151.689ZM154.587 6.81965C154.587 5.91965 155.391 5.27752 156.548 5.27752C157.636 5.27752 158.434 5.92471 158.475 6.81459H157.636C157.575 6.30898 157.165 5.99549 156.518 5.99549C155.876 5.99549 155.451 6.31403 155.451 6.77414C155.451 7.13819 155.729 7.38089 156.326 7.53257L157.14 7.72976C158.202 7.99774 158.586 8.38201 158.586 9.15561C158.586 10.0708 157.722 10.718 156.493 10.718C155.34 10.718 154.536 10.091 154.445 9.16066H155.325C155.421 9.70673 155.836 9.99999 156.548 9.99999C157.261 9.99999 157.701 9.69662 157.701 9.22134C157.701 8.84718 157.484 8.64493 156.892 8.48819L155.967 8.25055C155.042 8.01291 154.587 7.53763 154.587 6.81965ZM159.34 10.627V5.36853H160.219V10.627H159.34ZM159.78 4.4837C159.481 4.4837 159.234 4.23594 159.234 3.93763C159.234 3.63426 159.481 3.39156 159.78 3.39156C160.083 3.39156 160.331 3.63426 160.331 3.93763C160.331 4.23594 160.083 4.4837 159.78 4.4837ZM161.484 4.09943H162.363V5.36853H163.385V6.09156H162.363V9.21628C162.363 9.69662 162.566 9.91403 163.016 9.91403C163.117 9.91403 163.319 9.89886 163.38 9.88875V10.627C163.274 10.6522 163.031 10.6674 162.824 10.6674C161.858 10.6674 161.484 10.273 161.484 9.26178V6.09156H160.7V5.36853H161.484V4.09943ZM164.553 12.5938C164.447 12.5938 164.27 12.5837 164.174 12.5635V11.8253C164.27 11.8455 164.406 11.8505 164.518 11.8505C165.008 11.8505 165.281 11.6129 165.483 11.0011L165.605 10.632L163.663 5.36853H164.604L166.06 9.74718H166.075L167.531 5.36853H168.456L166.388 10.9961C165.938 12.2247 165.504 12.5938 164.553 12.5938Z" fill="#154F1F"/>
</g>
<g opacity="0.65" filter="url(#filter1_d_925_16323)">
<rect x="45.7285" y="18" width="178.02" height="33.9056" rx="11" fill="white"/>
<rect x="53.4346" y="25.7061" width="18.4939" height="18.4939" rx="3.08232" fill="#8F92FF"/>
<path d="M83.9622 39.4531H82.9463V35.9483L80.0566 31.309H81.2136L83.4373 34.9662H83.4712L85.6949 31.309H86.8519L83.9622 35.9483V39.4531ZM88.2066 38.7194C89.1322 38.7194 89.8434 38.0704 89.8434 37.2238V36.7441L88.2744 36.84C87.4842 36.8908 87.0327 37.2407 87.0327 37.7938C87.0327 38.3526 87.5012 38.7194 88.2066 38.7194ZM87.9865 39.5547C86.8182 39.5547 86.0337 38.8492 86.0337 37.7938C86.0337 36.7892 86.807 36.1571 88.1615 36.0781L89.8434 35.9821V35.4911C89.8434 34.7743 89.3693 34.3454 88.5566 34.3454C87.8003 34.3454 87.3262 34.701 87.202 35.2766H86.2539C86.3216 34.2607 87.1907 33.4819 88.5791 33.4819C89.9563 33.4819 90.8254 34.2269 90.8254 35.3952V39.4531H89.8942V38.4429H89.8716C89.5217 39.1145 88.7767 39.5547 87.9865 39.5547ZM91.8923 39.4531V31.309H92.8744V39.4531H91.8923ZM96.323 34.3341C95.4031 34.3341 94.7597 35.0396 94.6976 36.016H97.8864C97.8638 35.0339 97.2486 34.3341 96.323 34.3341ZM97.8638 37.7712H98.8289C98.6596 38.7984 97.6663 39.5547 96.3851 39.5547C94.7032 39.5547 93.6817 38.3864 93.6817 36.5409C93.6817 34.7179 94.7202 33.4819 96.34 33.4819C97.9259 33.4819 98.9023 34.6332 98.9023 36.4111V36.7836H94.6919V36.84C94.6919 37.9631 95.3523 38.7025 96.4077 38.7025C97.1527 38.7025 97.7001 38.3243 97.8638 37.7712ZM102.972 31.309V36.5296C102.972 37.76 103.779 38.6517 105.19 38.6517C106.601 38.6517 107.408 37.76 107.408 36.5296V31.309H108.424V36.5973C108.424 38.3356 107.211 39.5886 105.19 39.5886C103.17 39.5886 101.956 38.3356 101.956 36.5973V31.309H102.972ZM109.621 39.4531V33.5835H110.546V34.5204H110.569C110.896 33.8882 111.523 33.4819 112.431 33.4819C113.718 33.4819 114.463 34.3115 114.463 35.6435V39.4531H113.481V35.8185C113.481 34.8703 113.035 34.351 112.132 34.351C111.207 34.351 110.603 35.0057 110.603 35.9991V39.4531H109.621ZM115.536 39.4531V33.5835H116.518V39.4531H115.536ZM116.027 32.5958C115.694 32.5958 115.417 32.3192 115.417 31.9862C115.417 31.6476 115.694 31.3767 116.027 31.3767C116.365 31.3767 116.642 31.6476 116.642 31.9862C116.642 32.3192 116.365 32.5958 116.027 32.5958ZM122.427 33.5835L120.271 39.4531H119.267L117.105 33.5835H118.138L119.758 38.409H119.78L121.406 33.5835H122.427ZM125.153 34.3341C124.233 34.3341 123.59 35.0396 123.528 36.016H126.717C126.694 35.0339 126.079 34.3341 125.153 34.3341ZM126.694 37.7712H127.659C127.49 38.7984 126.497 39.5547 125.216 39.5547C123.534 39.5547 122.512 38.3864 122.512 36.5409C122.512 34.7179 123.551 33.4819 125.17 33.4819C126.756 33.4819 127.733 34.6332 127.733 36.4111V36.7836H123.522V36.84C123.522 37.9631 124.183 38.7025 125.238 38.7025C125.983 38.7025 126.531 38.3243 126.694 37.7712ZM128.495 39.4531V33.5835H129.42V34.5429H129.443C129.635 33.8939 130.177 33.4819 130.865 33.4819C131.035 33.4819 131.181 33.5101 131.26 33.5214V34.4752C131.181 34.447 130.973 34.4188 130.736 34.4188C129.974 34.4188 129.477 34.9662 129.477 35.7959V39.4531H128.495ZM131.729 35.2033C131.729 34.1986 132.626 33.4819 133.919 33.4819C135.132 33.4819 136.024 34.2043 136.069 35.1976H135.132C135.065 34.6332 134.607 34.2833 133.885 34.2833C133.168 34.2833 132.694 34.6389 132.694 35.1525C132.694 35.5588 133.005 35.8297 133.671 35.9991L134.579 36.2192C135.764 36.5183 136.193 36.9472 136.193 37.8107C136.193 38.8323 135.228 39.5547 133.857 39.5547C132.57 39.5547 131.673 38.8549 131.571 37.8164H132.553C132.66 38.4259 133.123 38.7533 133.919 38.7533C134.715 38.7533 135.206 38.4146 135.206 37.8841C135.206 37.4665 134.963 37.2407 134.303 37.0658L133.27 36.8005C132.237 36.5352 131.729 36.0047 131.729 35.2033ZM137.035 39.4531V33.5835H138.017V39.4531H137.035ZM137.526 32.5958C137.193 32.5958 136.916 32.3192 136.916 31.9862C136.916 31.6476 137.193 31.3767 137.526 31.3767C137.864 31.3767 138.141 31.6476 138.141 31.9862C138.141 32.3192 137.864 32.5958 137.526 32.5958ZM139.428 32.1668H140.41V33.5835H141.55V34.3905H140.41V37.8785C140.41 38.4146 140.636 38.6573 141.138 38.6573C141.251 38.6573 141.477 38.6404 141.544 38.6291V39.4531C141.426 39.4813 141.155 39.4983 140.923 39.4983C139.845 39.4983 139.428 39.0581 139.428 37.9293V34.3905H138.553V33.5835H139.428V32.1668ZM142.854 41.6486C142.735 41.6486 142.538 41.6373 142.431 41.6147V40.7907C142.538 40.8133 142.69 40.8189 142.814 40.8189C143.362 40.8189 143.667 40.5537 143.892 39.8708L144.028 39.4588L141.861 33.5835H142.91L144.536 38.4711H144.553L146.178 33.5835H147.211L144.903 39.8651C144.4 41.2366 143.915 41.6486 142.854 41.6486Z" fill="#154F1F"/>
</g>
<g opacity="0.65" filter="url(#filter2_d_925_16323)">
<rect x="48.0059" y="155.043" width="178.02" height="33.9056" rx="7.70581" fill="white"/>
<rect x="55.7119" y="162.749" width="18.4939" height="18.4939" rx="3.08232" fill="#8F92FF"/>
<path d="M86.5089 176.632C84.2626 176.632 82.8403 175 82.8403 172.421C82.8403 169.865 84.2795 168.216 86.5089 168.216C88.281 168.216 89.6299 169.294 89.8896 170.92H88.8624C88.6027 169.853 87.6715 169.153 86.5089 169.153C84.9173 169.153 83.8844 170.44 83.8844 172.421C83.8844 174.419 84.906 175.695 86.5145 175.695C87.711 175.695 88.5689 175.119 88.8624 174.126H89.8896C89.5171 175.734 88.3093 176.632 86.5089 176.632ZM93.1407 176.598C91.5152 176.598 90.4203 175.429 90.4203 173.561C90.4203 171.687 91.5152 170.525 93.1407 170.525C94.7605 170.525 95.8554 171.687 95.8554 173.561C95.8554 175.429 94.7605 176.598 93.1407 176.598ZM93.1407 175.734C94.1791 175.734 94.8564 174.944 94.8564 173.561C94.8564 172.179 94.1791 171.388 93.1407 171.388C92.1022 171.388 91.4193 172.179 91.4193 173.561C91.4193 174.944 92.1022 175.734 93.1407 175.734ZM96.6175 176.496V170.626H97.5431V171.586H97.5657C97.7576 170.937 98.2994 170.525 98.988 170.525C99.1573 170.525 99.304 170.553 99.383 170.564V171.518C99.304 171.49 99.0952 171.462 98.8582 171.462C98.0962 171.462 97.5996 172.009 97.5996 172.839V176.496H96.6175ZM99.9533 176.496V170.626H100.879V171.563H100.901C101.229 170.931 101.855 170.525 102.764 170.525C104.051 170.525 104.796 171.354 104.796 172.686V176.496H103.814V172.861C103.814 171.913 103.368 171.394 102.465 171.394C101.539 171.394 100.935 172.049 100.935 173.042V176.496H99.9533ZM108.171 171.377C107.251 171.377 106.608 172.083 106.546 173.059H109.734C109.712 172.077 109.097 171.377 108.171 171.377ZM109.712 174.814H110.677C110.508 175.841 109.514 176.598 108.233 176.598C106.551 176.598 105.53 175.429 105.53 173.584C105.53 171.761 106.568 170.525 108.188 170.525C109.774 170.525 110.75 171.676 110.75 173.454V173.827H106.54V173.883C106.54 175.006 107.2 175.745 108.256 175.745C109.001 175.745 109.548 175.367 109.712 174.814ZM111.563 176.496V168.352H112.545V176.496H111.563ZM113.691 176.496V168.352H114.673V176.496H113.691ZM119.076 168.352V173.573C119.076 174.803 119.883 175.695 121.294 175.695C122.705 175.695 123.512 174.803 123.512 173.573V168.352H124.528V173.64C124.528 175.379 123.315 176.632 121.294 176.632C119.274 176.632 118.06 175.379 118.06 173.64V168.352H119.076ZM125.725 176.496V170.626H126.65V171.563H126.673C127 170.931 127.627 170.525 128.535 170.525C129.822 170.525 130.567 171.354 130.567 172.686V176.496H129.585V172.861C129.585 171.913 129.139 171.394 128.236 171.394C127.311 171.394 126.707 172.049 126.707 173.042V176.496H125.725ZM131.64 176.496V170.626H132.622V176.496H131.64ZM132.131 169.639C131.798 169.639 131.521 169.362 131.521 169.029C131.521 168.691 131.798 168.42 132.131 168.42C132.469 168.42 132.746 168.691 132.746 169.029C132.746 169.362 132.469 169.639 132.131 169.639ZM138.531 170.626L136.375 176.496H135.371L133.209 170.626H134.242L135.862 175.452H135.884L137.51 170.626H138.531ZM141.257 171.377C140.337 171.377 139.694 172.083 139.632 173.059H142.821C142.798 172.077 142.183 171.377 141.257 171.377ZM142.798 174.814H143.763C143.594 175.841 142.601 176.598 141.32 176.598C139.638 176.598 138.616 175.429 138.616 173.584C138.616 171.761 139.655 170.525 141.274 170.525C142.86 170.525 143.837 171.676 143.837 173.454V173.827H139.626V173.883C139.626 175.006 140.287 175.745 141.342 175.745C142.087 175.745 142.635 175.367 142.798 174.814ZM144.599 176.496V170.626H145.524V171.586H145.547C145.739 170.937 146.281 170.525 146.969 170.525C147.139 170.525 147.285 170.553 147.364 170.564V171.518C147.285 171.49 147.077 171.462 146.839 171.462C146.078 171.462 145.581 172.009 145.581 172.839V176.496H144.599ZM147.833 172.246C147.833 171.242 148.73 170.525 150.023 170.525C151.236 170.525 152.128 171.247 152.173 172.241H151.236C151.169 171.676 150.711 171.326 149.989 171.326C149.272 171.326 148.798 171.682 148.798 172.195C148.798 172.602 149.109 172.873 149.775 173.042L150.683 173.262C151.868 173.561 152.297 173.99 152.297 174.854C152.297 175.875 151.332 176.598 149.961 176.598C148.674 176.598 147.777 175.898 147.675 174.859H148.657C148.764 175.469 149.227 175.796 150.023 175.796C150.819 175.796 151.31 175.458 151.31 174.927C151.31 174.509 151.067 174.284 150.407 174.109L149.374 173.843C148.341 173.578 147.833 173.048 147.833 172.246ZM153.139 176.496V170.626H154.121V176.496H153.139ZM153.63 169.639C153.297 169.639 153.02 169.362 153.02 169.029C153.02 168.691 153.297 168.42 153.63 168.42C153.968 168.42 154.245 168.691 154.245 169.029C154.245 169.362 153.968 169.639 153.63 169.639ZM155.532 169.21H156.514V170.626H157.654V171.434H156.514V174.921C156.514 175.458 156.74 175.7 157.242 175.7C157.355 175.7 157.581 175.683 157.648 175.672V176.496C157.53 176.524 157.259 176.541 157.027 176.541C155.949 176.541 155.532 176.101 155.532 174.972V171.434H154.657V170.626H155.532V169.21ZM158.958 178.692C158.839 178.692 158.642 178.68 158.535 178.658V177.834C158.642 177.856 158.794 177.862 158.918 177.862C159.466 177.862 159.771 177.597 159.996 176.914L160.132 176.502L157.965 170.626H159.014L160.64 175.514H160.657L162.282 170.626H163.315L161.007 176.908C160.504 178.28 160.019 178.692 158.958 178.692Z" fill="#154F1F"/>
</g>
<g opacity="0.75" filter="url(#filter3_d_925_16323)">
<rect x="32.041" y="48" width="205.395" height="39.1194" rx="12" fill="white"/>
<rect x="40.9316" y="56.8906" width="21.3379" height="21.3379" rx="3.55631" fill="#8F92FF"/>
<path d="M75.8584 72.0596H74.6862V63.718H71.7234V62.663H78.8212V63.718H75.8584V72.0596ZM80.6643 72.1768C78.7889 72.1768 77.5257 70.8288 77.5257 68.6734C77.5257 66.5115 78.7889 65.1701 80.6643 65.1701C82.5332 65.1701 83.7965 66.5115 83.7965 68.6734C83.7965 70.8288 82.5332 72.1768 80.6643 72.1768ZM80.6643 71.1805C81.8625 71.1805 82.6439 70.2688 82.6439 68.6734C82.6439 67.078 81.8625 66.1664 80.6643 66.1664C79.4662 66.1664 78.6782 67.078 78.6782 68.6734C78.6782 70.2688 79.4662 71.1805 80.6643 71.1805ZM87.9643 65.1701C89.6899 65.1701 90.8621 66.5506 90.8621 68.6734C90.8621 70.7963 89.6965 72.1768 87.9904 72.1768C87.0201 72.1768 86.2387 71.7014 85.835 70.9591H85.8089V74.3192H84.6759V65.2873H85.7503V66.4334H85.7764C86.1931 65.6715 86.981 65.1701 87.9643 65.1701ZM87.7429 71.1805C88.9476 71.1805 89.703 70.2102 89.703 68.6734C89.703 67.1432 88.9476 66.1664 87.7429 66.1664C86.5838 66.1664 85.8024 67.1692 85.8024 68.6734C85.8024 70.1842 86.5838 71.1805 87.7429 71.1805ZM95.5576 72.0596H94.3855V62.663H95.5576V72.0596ZM98.2863 72.0596H97.1142V62.663H98.2863V72.0596ZM103.392 72.0596H102.22V63.718H99.2568V62.663H106.355V63.718H103.392V72.0596ZM110.966 62.663V68.6865C110.966 70.106 111.897 71.1349 113.525 71.1349C115.153 71.1349 116.084 70.106 116.084 68.6865V62.663H117.256V68.7646C117.256 70.7702 115.856 72.2159 113.525 72.2159C111.193 72.2159 109.793 70.7702 109.793 68.7646V62.663H110.966ZM118.637 72.0596V65.2873H119.705V66.3683H119.731C120.108 65.6389 120.831 65.1701 121.88 65.1701C123.364 65.1701 124.224 66.1273 124.224 67.6641V72.0596H123.091V67.866C123.091 66.772 122.576 66.1729 121.534 66.1729C120.467 66.1729 119.77 66.9283 119.77 68.0744V72.0596H118.637ZM125.461 72.0596V65.2873H126.594V72.0596H125.461ZM126.028 64.1477C125.644 64.1477 125.325 63.8287 125.325 63.4445C125.325 63.0538 125.644 62.7412 126.028 62.7412C126.419 62.7412 126.738 63.0538 126.738 63.4445C126.738 63.8287 126.419 64.1477 126.028 64.1477ZM133.412 65.2873L130.925 72.0596H129.766L127.272 65.2873H128.464L130.332 70.8549H130.358L132.234 65.2873H133.412ZM136.558 66.1534C135.497 66.1534 134.754 66.9673 134.683 68.0939H138.362C138.336 66.9608 137.626 66.1534 136.558 66.1534ZM138.336 70.1191H139.449C139.254 71.3042 138.108 72.1768 136.63 72.1768C134.689 72.1768 133.51 70.8288 133.51 68.6995C133.51 66.5962 134.709 65.1701 136.577 65.1701C138.407 65.1701 139.534 66.4985 139.534 68.5497V68.9795H134.676V69.0446C134.676 70.3405 135.438 71.1935 136.656 71.1935C137.515 71.1935 138.147 70.7572 138.336 70.1191ZM140.413 72.0596V65.2873H141.481V66.3943H141.507C141.729 65.6455 142.354 65.1701 143.148 65.1701C143.343 65.1701 143.513 65.2026 143.604 65.2157V66.3162C143.513 66.2836 143.272 66.251 142.998 66.251C142.119 66.251 141.546 66.8827 141.546 67.8399V72.0596H140.413ZM144.145 67.1562C144.145 65.9971 145.18 65.1701 146.671 65.1701C148.071 65.1701 149.1 66.0036 149.152 67.1497H148.071C147.993 66.4985 147.466 66.0948 146.632 66.0948C145.805 66.0948 145.258 66.505 145.258 67.0976C145.258 67.5664 145.616 67.879 146.385 68.0744L147.433 68.3283C148.801 68.6734 149.296 69.1683 149.296 70.1646C149.296 71.3433 148.182 72.1768 146.6 72.1768C145.115 72.1768 144.08 71.3693 143.962 70.1711H145.095C145.219 70.8744 145.753 71.2521 146.671 71.2521C147.589 71.2521 148.156 70.8614 148.156 70.2493C148.156 69.7674 147.876 69.5069 147.114 69.3051L145.922 68.999C144.731 68.693 144.145 68.0809 144.145 67.1562ZM150.266 72.0596V65.2873H151.399V72.0596H150.266ZM150.833 64.1477C150.448 64.1477 150.129 63.8287 150.129 63.4445C150.129 63.0538 150.448 62.7412 150.833 62.7412C151.223 62.7412 151.542 63.0538 151.542 63.4445C151.542 63.8287 151.223 64.1477 150.833 64.1477ZM153.027 63.6528H154.16V65.2873H155.476V66.2185H154.16V70.2428C154.16 70.8614 154.421 71.1414 155 71.1414C155.131 71.1414 155.391 71.1219 155.469 71.1088V72.0596C155.333 72.0921 155.02 72.1117 154.753 72.1117C153.509 72.1117 153.027 71.6037 153.027 70.3014V66.2185H152.018V65.2873H153.027V63.6528ZM156.479 72.0596V65.2873H157.612V72.0596H156.479ZM157.045 64.1477C156.661 64.1477 156.342 63.8287 156.342 63.4445C156.342 63.0538 156.661 62.7412 157.045 62.7412C157.436 62.7412 157.755 63.0538 157.755 63.4445C157.755 63.8287 157.436 64.1477 157.045 64.1477ZM161.591 66.1534C160.529 66.1534 159.787 66.9673 159.715 68.0939H163.395C163.369 66.9608 162.659 66.1534 161.591 66.1534ZM163.369 70.1191H164.482C164.287 71.3042 163.141 72.1768 161.662 72.1768C159.722 72.1768 158.543 70.8288 158.543 68.6995C158.543 66.5962 159.742 65.1701 161.61 65.1701C163.44 65.1701 164.567 66.4985 164.567 68.5497V68.9795H159.709V69.0446C159.709 70.3405 160.471 71.1935 161.689 71.1935C162.548 71.1935 163.18 70.7572 163.369 70.1191ZM165.329 67.1562C165.329 65.9971 166.364 65.1701 167.855 65.1701C169.255 65.1701 170.284 66.0036 170.336 67.1497H169.255C169.177 66.4985 168.65 66.0948 167.816 66.0948C166.989 66.0948 166.442 66.505 166.442 67.0976C166.442 67.5664 166.801 67.879 167.569 68.0744L168.617 68.3283C169.985 68.6734 170.48 69.1683 170.48 70.1646C170.48 71.3433 169.366 72.1768 167.784 72.1768C166.299 72.1768 165.264 71.3693 165.147 70.1711H166.28C166.403 70.8744 166.937 71.2521 167.855 71.2521C168.774 71.2521 169.34 70.8614 169.34 70.2493C169.34 69.7674 169.06 69.5069 168.298 69.3051L167.107 68.999C165.915 68.693 165.329 68.0809 165.329 67.1562Z" fill="#154F1F"/>
</g>
<g opacity="0.75" filter="url(#filter4_d_925_16323)">
<rect x="34.0742" y="120" width="205.395" height="39.1194" rx="12" fill="white"/>
<rect x="42.9648" y="128.891" width="21.3379" height="21.3379" rx="3.55631" fill="#8F92FF"/>
<path d="M78.1933 144.216C75.6016 144.216 73.9606 142.334 73.9606 139.358C73.9606 136.408 75.6212 134.507 78.1933 134.507C80.238 134.507 81.7943 135.751 82.0939 137.626H80.9087C80.6092 136.395 79.5347 135.588 78.1933 135.588C76.357 135.588 75.1653 137.072 75.1653 139.358C75.1653 141.663 76.344 143.135 78.1998 143.135C79.5803 143.135 80.5701 142.471 80.9087 141.325H82.0939C81.6641 143.18 80.2706 144.216 78.1933 144.216ZM85.8449 144.177C83.9695 144.177 82.7063 142.829 82.7063 140.673C82.7063 138.512 83.9695 137.17 85.8449 137.17C87.7138 137.17 88.9771 138.512 88.9771 140.673C88.9771 142.829 87.7138 144.177 85.8449 144.177ZM85.8449 143.18C87.0431 143.18 87.8245 142.269 87.8245 140.673C87.8245 139.078 87.0431 138.166 85.8449 138.166C84.6468 138.166 83.8588 139.078 83.8588 140.673C83.8588 142.269 84.6468 143.18 85.8449 143.18ZM89.8565 144.06V137.287H90.9244V138.394H90.9504C91.1718 137.645 91.797 137.17 92.5914 137.17C92.7868 137.17 92.9561 137.203 93.0472 137.216V138.316C92.9561 138.284 92.7151 138.251 92.4416 138.251C91.5626 138.251 90.9895 138.883 90.9895 139.84V144.06H89.8565ZM93.7052 144.06V137.287H94.7731V138.368H94.7992C95.1769 137.639 95.8997 137.17 96.9481 137.17C98.4328 137.17 99.2923 138.127 99.2923 139.664V144.06H98.1593V139.866C98.1593 138.772 97.6448 138.173 96.6029 138.173C95.535 138.173 94.8382 138.928 94.8382 140.074V144.06H93.7052ZM103.187 138.153C102.125 138.153 101.383 138.967 101.311 140.094H104.99C104.964 138.961 104.255 138.153 103.187 138.153ZM104.964 142.119H106.078C105.883 143.304 104.736 144.177 103.258 144.177C101.318 144.177 100.139 142.829 100.139 140.699C100.139 138.596 101.337 137.17 103.206 137.17C105.036 137.17 106.163 138.498 106.163 140.55V140.979H101.305V141.045C101.305 142.34 102.067 143.194 103.284 143.194C104.144 143.194 104.776 142.757 104.964 142.119ZM107.1 144.06V134.663H108.234V144.06H107.1ZM109.556 144.06V134.663H110.689V144.06H109.556ZM115.768 134.663V140.686C115.768 142.106 116.7 143.135 118.328 143.135C119.956 143.135 120.887 142.106 120.887 140.686V134.663H122.059V140.765C122.059 142.77 120.659 144.216 118.328 144.216C115.996 144.216 114.596 142.77 114.596 140.765V134.663H115.768ZM123.44 144.06V137.287H124.508V138.368H124.534C124.911 137.639 125.634 137.17 126.682 137.17C128.167 137.17 129.027 138.127 129.027 139.664V144.06H127.894V139.866C127.894 138.772 127.379 138.173 126.337 138.173C125.269 138.173 124.573 138.928 124.573 140.074V144.06H123.44ZM130.264 144.06V137.287H131.397V144.06H130.264ZM130.831 136.148C130.447 136.148 130.127 135.829 130.127 135.444C130.127 135.054 130.447 134.741 130.831 134.741C131.221 134.741 131.541 135.054 131.541 135.444C131.541 135.829 131.221 136.148 130.831 136.148ZM138.215 137.287L135.728 144.06H134.569L132.075 137.287H133.266L135.135 142.855H135.161L137.037 137.287H138.215ZM141.361 138.153C140.299 138.153 139.557 138.967 139.485 140.094H143.165C143.139 138.961 142.429 138.153 141.361 138.153ZM143.139 142.119H144.252C144.057 143.304 142.911 144.177 141.432 144.177C139.492 144.177 138.313 142.829 138.313 140.699C138.313 138.596 139.512 137.17 141.38 137.17C143.21 137.17 144.337 138.498 144.337 140.55V140.979H139.479V141.045C139.479 142.34 140.241 143.194 141.459 143.194C142.318 143.194 142.95 142.757 143.139 142.119ZM145.216 144.06V137.287H146.284V138.394H146.31C146.531 137.645 147.157 137.17 147.951 137.17C148.146 137.17 148.316 137.203 148.407 137.216V138.316C148.316 138.284 148.075 138.251 147.801 138.251C146.922 138.251 146.349 138.883 146.349 139.84V144.06H145.216ZM148.948 139.156C148.948 137.997 149.983 137.17 151.474 137.17C152.874 137.17 153.903 138.004 153.955 139.15H152.874C152.796 138.498 152.269 138.095 151.435 138.095C150.608 138.095 150.061 138.505 150.061 139.098C150.061 139.566 150.419 139.879 151.188 140.074L152.236 140.328C153.604 140.673 154.098 141.168 154.098 142.165C154.098 143.343 152.985 144.177 151.403 144.177C149.918 144.177 148.883 143.369 148.765 142.171H149.898C150.022 142.874 150.556 143.252 151.474 143.252C152.392 143.252 152.959 142.861 152.959 142.249C152.959 141.767 152.679 141.507 151.917 141.305L150.725 140.999C149.534 140.693 148.948 140.081 148.948 139.156ZM155.069 144.06V137.287H156.202V144.06H155.069ZM155.636 136.148C155.251 136.148 154.932 135.829 154.932 135.444C154.932 135.054 155.251 134.741 155.636 134.741C156.026 134.741 156.345 135.054 156.345 135.444C156.345 135.829 156.026 136.148 155.636 136.148ZM157.83 135.653H158.963V137.287H160.279V138.218H158.963V142.243C158.963 142.861 159.224 143.141 159.803 143.141C159.934 143.141 160.194 143.122 160.272 143.109V144.06C160.135 144.092 159.823 144.112 159.556 144.112C158.312 144.112 157.83 143.604 157.83 142.301V138.218H156.821V137.287H157.83V135.653ZM161.783 146.593C161.646 146.593 161.418 146.58 161.295 146.554V145.603C161.418 145.629 161.594 145.635 161.738 145.635C162.369 145.635 162.721 145.329 162.981 144.541L163.138 144.066L160.637 137.287H161.848L163.724 142.927H163.743L165.619 137.287H166.81L164.147 144.535C163.567 146.117 163.007 146.593 161.783 146.593Z" fill="#154F1F"/>
</g>
<g filter="url(#filter5_d_925_16323)">
<rect x="20.4902" y="82" width="231.021" height="44" rx="13" fill="white"/>
<rect x="30.4902" y="92" width="24" height="24" rx="4" fill="#8F92FF"/>
<path d="M74.3322 109.5H73.0139V104.688H67.2131V109.5H65.8947V98.9312H67.2131V103.501H73.0139V98.9312H74.3322V109.5ZM78.1777 108.548C79.3789 108.548 80.3018 107.706 80.3018 106.607V105.984L78.2656 106.109C77.2402 106.175 76.6543 106.629 76.6543 107.347C76.6543 108.072 77.2622 108.548 78.1777 108.548ZM77.8921 109.632C76.376 109.632 75.3579 108.716 75.3579 107.347C75.3579 106.043 76.3613 105.223 78.1191 105.12L80.3018 104.996V104.358C80.3018 103.428 79.6865 102.872 78.6318 102.872C77.6504 102.872 77.0352 103.333 76.874 104.08H75.6436C75.7314 102.762 76.8594 101.751 78.6611 101.751C80.4482 101.751 81.5762 102.718 81.5762 104.234V109.5H80.3677V108.189H80.3384C79.8843 109.061 78.9175 109.632 77.8921 109.632ZM82.8948 109.5V101.883H84.096V103.128H84.1253C84.3743 102.286 85.0774 101.751 85.971 101.751C86.1907 101.751 86.3812 101.788 86.4837 101.802V103.04C86.3812 103.003 86.1102 102.967 85.8025 102.967C84.8138 102.967 84.1692 103.677 84.1692 104.754V109.5H82.8948ZM93.4713 101.883L90.6734 109.5H89.3697L86.5646 101.883H87.9049L90.0069 108.145H90.0362L92.1456 101.883H93.4713ZM96.5404 108.548C97.7416 108.548 98.6645 107.706 98.6645 106.607V105.984L96.6283 106.109C95.6029 106.175 95.017 106.629 95.017 107.347C95.017 108.072 95.6249 108.548 96.5404 108.548ZM96.2548 109.632C94.7387 109.632 93.7206 108.716 93.7206 107.347C93.7206 106.043 94.724 105.223 96.4818 105.12L98.6645 104.996V104.358C98.6645 103.428 98.0492 102.872 96.9945 102.872C96.0131 102.872 95.3979 103.333 95.2367 104.08H94.0062C94.0941 102.762 95.2221 101.751 97.0238 101.751C98.8109 101.751 99.9389 102.718 99.9389 104.234V109.5H98.7304V108.189H98.7011C98.247 109.061 97.2802 109.632 96.2548 109.632ZM101.258 109.5V101.883H102.459V103.128H102.488C102.737 102.286 103.44 101.751 104.334 101.751C104.553 101.751 104.744 101.788 104.846 101.802V103.04C104.744 103.003 104.473 102.967 104.165 102.967C103.176 102.967 102.532 103.677 102.532 104.754V109.5H101.258ZM108.106 109.632C106.165 109.632 104.847 108.079 104.847 105.691C104.847 103.304 106.158 101.751 108.077 101.751C109.168 101.751 110.047 102.286 110.501 103.121H110.53V98.9312H111.805V109.5H110.589V108.211H110.567C110.076 109.09 109.205 109.632 108.106 109.632ZM108.348 102.872C107 102.872 106.15 103.97 106.15 105.691C106.15 107.42 107 108.511 108.348 108.511C109.659 108.511 110.538 107.398 110.538 105.691C110.538 103.992 109.659 102.872 108.348 102.872ZM117.518 98.9312V105.706C117.518 107.303 118.566 108.46 120.397 108.46C122.228 108.46 123.275 107.303 123.275 105.706V98.9312H124.593V105.794C124.593 108.05 123.019 109.676 120.397 109.676C117.775 109.676 116.2 108.05 116.2 105.794V98.9312H117.518ZM126.146 109.5V101.883H127.348V103.099H127.377C127.802 102.278 128.615 101.751 129.794 101.751C131.464 101.751 132.431 102.828 132.431 104.556V109.5H131.156V104.783C131.156 103.553 130.578 102.879 129.406 102.879C128.204 102.879 127.421 103.729 127.421 105.018V109.5H126.146ZM133.822 109.5V101.883H135.097V109.5H133.822ZM134.46 100.601C134.028 100.601 133.669 100.242 133.669 99.8101C133.669 99.3706 134.028 99.019 134.46 99.019C134.899 99.019 135.258 99.3706 135.258 99.8101C135.258 100.242 134.899 100.601 134.46 100.601ZM142.766 101.883L139.968 109.5H138.664L135.859 101.883H137.199L139.301 108.145H139.331L141.44 101.883H142.766ZM146.304 102.857C145.11 102.857 144.275 103.772 144.194 105.04H148.332C148.303 103.765 147.505 102.857 146.304 102.857ZM148.303 107.317H149.555C149.336 108.65 148.047 109.632 146.384 109.632C144.201 109.632 142.876 108.116 142.876 105.721C142.876 103.355 144.223 101.751 146.325 101.751C148.384 101.751 149.651 103.245 149.651 105.552V106.036H144.187V106.109C144.187 107.566 145.044 108.526 146.413 108.526C147.38 108.526 148.091 108.035 148.303 107.317ZM150.64 109.5V101.883H151.841V103.128H151.87C152.119 102.286 152.822 101.751 153.716 101.751C153.936 101.751 154.126 101.788 154.229 101.802V103.04C154.126 103.003 153.855 102.967 153.547 102.967C152.559 102.967 151.914 103.677 151.914 104.754V109.5H150.64ZM154.837 103.985C154.837 102.681 156.001 101.751 157.679 101.751C159.253 101.751 160.411 102.688 160.469 103.978H159.253C159.165 103.245 158.572 102.791 157.635 102.791C156.704 102.791 156.089 103.252 156.089 103.919C156.089 104.446 156.492 104.798 157.356 105.018L158.536 105.303C160.074 105.691 160.63 106.248 160.63 107.369C160.63 108.694 159.378 109.632 157.598 109.632C155.928 109.632 154.764 108.724 154.632 107.376H155.906C156.045 108.167 156.646 108.592 157.679 108.592C158.711 108.592 159.349 108.152 159.349 107.464C159.349 106.922 159.034 106.629 158.177 106.402L156.836 106.058C155.496 105.713 154.837 105.025 154.837 103.985ZM161.722 109.5V101.883H162.996V109.5H161.722ZM162.359 100.601C161.927 100.601 161.568 100.242 161.568 99.8101C161.568 99.3706 161.927 99.019 162.359 99.019C162.799 99.019 163.157 99.3706 163.157 99.8101C163.157 100.242 162.799 100.601 162.359 100.601ZM164.828 100.044H166.102V101.883H167.582V102.93H166.102V107.457C166.102 108.152 166.395 108.467 167.047 108.467C167.193 108.467 167.486 108.445 167.574 108.431V109.5C167.42 109.537 167.069 109.559 166.769 109.559C165.37 109.559 164.828 108.987 164.828 107.522V102.93H163.692V101.883H164.828V100.044ZM169.274 112.349C169.12 112.349 168.864 112.334 168.724 112.305V111.236C168.864 111.265 169.061 111.272 169.222 111.272C169.933 111.272 170.328 110.928 170.621 110.042L170.797 109.507L167.985 101.883H169.347L171.456 108.226H171.478L173.588 101.883H174.928L171.932 110.035C171.281 111.814 170.651 112.349 169.274 112.349Z" fill="#154F1F"/>
<path d="M191.048 105.926V109.28H189.861V105.926H186.734V104.739H189.861V101.465H191.048V104.739H194.175V105.926H191.048ZM197.816 109.5V100.33H197.786L194.988 102.344V100.953L197.801 98.9312H199.09V109.5H197.816ZM205.103 109.676C203.082 109.676 201.588 108.416 201.478 106.614H202.774C202.892 107.742 203.851 108.519 205.118 108.519C206.554 108.519 207.55 107.522 207.55 106.102C207.55 104.681 206.546 103.663 205.14 103.663C204.151 103.663 203.309 104.109 202.877 104.849H201.639L202.218 98.9312H208.267V100.103H203.302L202.979 103.545H203.009C203.485 102.908 204.364 102.527 205.374 102.527C207.403 102.527 208.868 104.014 208.868 106.065C208.868 108.189 207.308 109.676 205.103 109.676ZM213.893 101.429C213.893 103.025 213.014 104.058 211.674 104.058C210.333 104.058 209.454 103.025 209.454 101.429C209.454 99.832 210.333 98.7993 211.674 98.7993C213.014 98.7993 213.893 99.832 213.893 101.429ZM211.674 103.165C212.318 103.165 212.721 102.505 212.721 101.429C212.721 100.352 212.318 99.6929 211.674 99.6929C211.029 99.6929 210.626 100.352 210.626 101.429C210.626 102.505 211.029 103.165 211.674 103.165ZM211.351 109.5H210.077L214.156 103.926L217.811 98.9312H219.071L215.101 104.366L211.351 109.5ZM219.701 106.98C219.701 108.577 218.822 109.61 217.482 109.61C216.141 109.61 215.262 108.577 215.262 106.98C215.262 105.384 216.141 104.351 217.482 104.351C218.822 104.351 219.701 105.384 219.701 106.98ZM217.482 108.716C218.126 108.716 218.529 108.057 218.529 106.98C218.529 105.904 218.126 105.245 217.482 105.245C216.837 105.245 216.434 105.904 216.434 106.98C216.434 108.057 216.837 108.716 217.482 108.716Z" fill="#10A928"/>
</g>
</g>
<defs>
<filter id="filter0_d_925_16323" x="54.0878" y="-9.87219" width="162.106" height="32.9983" filterUnits="userSpaceOnUse" color-interpolation-filters="sRGB">
<feFlood flood-opacity="0" result="BackgroundImageFix"/>
<feColorMatrix in="SourceAlpha" type="matrix" values="0 0 0 0 0 0 0 0 0 0 0 0 0 0 0 0 0 0 127 0" result="hardAlpha"/>
<feOffset/>
<feGaussianBlur stdDeviation="0.65582"/>
<feComposite in2="hardAlpha" operator="out"/>
<feColorMatrix type="matrix" values="0 0 0 0 0 0 0 0 0 0 0 0 0 0 0 0 0 0 0.25 0"/>
<feBlend mode="normal" in2="BackgroundImageFix" result="effect1_dropShadow_925_16323"/>
<feBlend mode="normal" in="SourceGraphic" in2="effect1_dropShadow_925_16323" result="shape"/>
</filter>
<filter id="filter1_d_925_16323" x="44.2644" y="16.5359" width="180.948" height="36.8335" filterUnits="userSpaceOnUse" color-interpolation-filters="sRGB">
<feFlood flood-opacity="0" result="BackgroundImageFix"/>
<feColorMatrix in="SourceAlpha" type="matrix" values="0 0 0 0 0 0 0 0 0 0 0 0 0 0 0 0 0 0 127 0" result="hardAlpha"/>
<feOffset/>
<feGaussianBlur stdDeviation="0.732052"/>
<feComposite in2="hardAlpha" operator="out"/>
<feColorMatrix type="matrix" values="0 0 0 0 0 0 0 0 0 0 0 0 0 0 0 0 0 0 0.25 0"/>
<feBlend mode="normal" in2="BackgroundImageFix" result="effect1_dropShadow_925_16323"/>
<feBlend mode="normal" in="SourceGraphic" in2="effect1_dropShadow_925_16323" result="shape"/>
</filter>
<filter id="filter2_d_925_16323" x="46.5418" y="153.579" width="180.948" height="36.8335" filterUnits="userSpaceOnUse" color-interpolation-filters="sRGB">
<feFlood flood-opacity="0" result="BackgroundImageFix"/>
<feColorMatrix in="SourceAlpha" type="matrix" values="0 0 0 0 0 0 0 0 0 0 0 0 0 0 0 0 0 0 127 0" result="hardAlpha"/>
<feOffset/>
<feGaussianBlur stdDeviation="0.732052"/>
<feComposite in2="hardAlpha" operator="out"/>
<feColorMatrix type="matrix" values="0 0 0 0 0 0 0 0 0 0 0 0 0 0 0 0 0 0 0.25 0"/>
<feBlend mode="normal" in2="BackgroundImageFix" result="effect1_dropShadow_925_16323"/>
<feBlend mode="normal" in="SourceGraphic" in2="effect1_dropShadow_925_16323" result="shape"/>
</filter>
<filter id="filter3_d_925_16323" x="30.3518" y="46.3108" width="208.774" height="42.4976" filterUnits="userSpaceOnUse" color-interpolation-filters="sRGB">
<feFlood flood-opacity="0" result="BackgroundImageFix"/>
<feColorMatrix in="SourceAlpha" type="matrix" values="0 0 0 0 0 0 0 0 0 0 0 0 0 0 0 0 0 0 127 0" result="hardAlpha"/>
<feOffset/>
<feGaussianBlur stdDeviation="0.844623"/>
<feComposite in2="hardAlpha" operator="out"/>
<feColorMatrix type="matrix" values="0 0 0 0 0 0 0 0 0 0 0 0 0 0 0 0 0 0 0.25 0"/>
<feBlend mode="normal" in2="BackgroundImageFix" result="effect1_dropShadow_925_16323"/>
<feBlend mode="normal" in="SourceGraphic" in2="effect1_dropShadow_925_16323" result="shape"/>
</filter>
<filter id="filter4_d_925_16323" x="32.385" y="118.311" width="208.774" height="42.4976" filterUnits="userSpaceOnUse" color-interpolation-filters="sRGB">
<feFlood flood-opacity="0" result="BackgroundImageFix"/>
<feColorMatrix in="SourceAlpha" type="matrix" values="0 0 0 0 0 0 0 0 0 0 0 0 0 0 0 0 0 0 127 0" result="hardAlpha"/>
<feOffset/>
<feGaussianBlur stdDeviation="0.844623"/>
<feComposite in2="hardAlpha" operator="out"/>
<feColorMatrix type="matrix" values="0 0 0 0 0 0 0 0 0 0 0 0 0 0 0 0 0 0 0.25 0"/>
<feBlend mode="normal" in2="BackgroundImageFix" result="effect1_dropShadow_925_16323"/>
<feBlend mode="normal" in="SourceGraphic" in2="effect1_dropShadow_925_16323" result="shape"/>
</filter>
<filter id="filter5_d_925_16323" x="18.5902" y="80.1" width="234.821" height="47.8" filterUnits="userSpaceOnUse" color-interpolation-filters="sRGB">
<feFlood flood-opacity="0" result="BackgroundImageFix"/>
<feColorMatrix in="SourceAlpha" type="matrix" values="0 0 0 0 0 0 0 0 0 0 0 0 0 0 0 0 0 0 127 0" result="hardAlpha"/>
<feOffset/>
<feGaussianBlur stdDeviation="0.95"/>
<feComposite in2="hardAlpha" operator="out"/>
<feColorMatrix type="matrix" values="0 0 0 0 0 0 0 0 0 0 0 0 0 0 0 0 0 0 0.25 0"/>
<feBlend mode="normal" in2="BackgroundImageFix" result="effect1_dropShadow_925_16323"/>
<feBlend mode="normal" in="SourceGraphic" in2="effect1_dropShadow_925_16323" result="shape"/>
</filter>
<clipPath id="clip0_925_16323">
<rect width="268" height="230" rx="17" fill="white"/>
</clipPath>
</defs>
</svg>
