<svg width="293" height="156" viewBox="0 0 293 156" fill="none" xmlns="http://www.w3.org/2000/svg">
<path d="M0 26C0 11.6406 11.6406 0 26 0H266.292C280.651 0 292.292 11.6406 292.292 26V161.129H0V26Z" fill="white"/>
<rect x="13" y="17" width="127.129" height="127.129" rx="16.4209" fill="#F8F8F8"/>
<path d="M27.8338 32.2874V40.7129H26.6918V32.2874H27.8338ZM26.8899 40.7129V39.6524H31.5397V40.7129H26.8899ZM33.6893 32.2874V40.7129H32.5472V32.2874H33.6893ZM35.8219 37.7063H33.4329V36.6808H35.5771C36.1443 36.6808 36.5794 36.5293 36.8823 36.2263C37.1853 35.9155 37.3368 35.4999 37.3368 34.9794C37.3368 34.4511 37.1853 34.0432 36.8823 33.7557C36.5794 33.4605 36.1598 33.3129 35.6238 33.3129H33.1765V32.2874H35.8219C36.3735 32.2874 36.8513 32.4 37.2553 32.6253C37.6592 32.8506 37.9739 33.1653 38.1992 33.5693C38.4245 33.9733 38.5371 34.4472 38.5371 34.991C38.5371 35.5115 38.4245 35.9777 38.1992 36.3894C37.9739 36.8012 37.6592 37.1236 37.2553 37.3567C36.8513 37.5897 36.3735 37.7063 35.8219 37.7063Z" fill="#757575"/>
<path d="M35.896 65.9907L26.5901 66.0098V64.5796L31.0333 60.7466C31.5926 60.2762 32.0566 59.8503 32.4253 59.469C32.794 59.0876 33.0864 58.738 33.3025 58.4201C33.5186 58.0896 33.6712 57.7654 33.7602 57.4476C33.8492 57.1298 33.8937 56.7865 33.8937 56.4179C33.8937 55.5534 33.6585 54.8796 33.1881 54.3965C32.7304 53.9007 32.0821 53.6528 31.243 53.6528C30.3913 53.6528 29.7048 53.9452 29.1835 54.53C28.675 55.1021 28.4144 55.8776 28.4017 56.8564H26.5329C26.5583 55.8776 26.7681 55.0194 27.1622 54.2821C27.5563 53.5447 28.1029 52.979 28.8021 52.5849C29.5141 52.1781 30.334 51.9747 31.2621 51.9747C32.1901 51.9747 32.9911 52.1527 33.6648 52.5086C34.3386 52.8646 34.8599 53.3667 35.2285 54.0151C35.6099 54.6508 35.8006 55.4135 35.8006 56.3034C35.8006 56.7865 35.737 57.2505 35.6099 57.6955C35.4828 58.1277 35.2794 58.56 34.9997 58.9922C34.7327 59.4117 34.3831 59.8503 33.9509 60.308C33.5186 60.753 32.9974 61.2424 32.3872 61.7764L28.7831 64.9037L28.1538 64.2554H35.896V65.9907ZM41.738 66.2386C40.7973 66.2386 39.9773 66.0543 39.2781 65.6856C38.5916 65.3042 38.0513 64.7766 37.6572 64.1028C37.2758 63.4163 37.0851 62.6154 37.0851 61.7001H38.9348C38.9348 62.59 39.1891 63.2892 39.6976 63.7977C40.2061 64.3062 40.899 64.5605 41.7762 64.5605C42.3991 64.5605 42.9394 64.4334 43.3971 64.1791C43.8548 63.9121 44.2107 63.5498 44.465 63.0921C44.7192 62.6218 44.8464 62.0751 44.8464 61.4522C44.8464 60.8547 44.7256 60.3271 44.484 59.8694C44.2425 59.399 43.8929 59.0304 43.4352 58.7634C42.9903 58.4964 42.4436 58.3629 41.7953 58.3629C41.2232 58.3629 40.6829 58.4901 40.1744 58.7443C39.6658 58.9859 39.2527 59.3037 38.9348 59.6978L37.3521 59.2973L39.0302 52.2226H45.9333V53.9388H39.7167L40.5748 53.1761L39.2972 58.3057L38.6679 58.4392C39.0238 57.8926 39.5069 57.4794 40.1171 57.1997C40.7274 56.9073 41.4012 56.7611 42.1385 56.7611C43.0793 56.7611 43.8929 56.9645 44.5794 57.3713C45.2659 57.7654 45.7998 58.3121 46.1812 59.0113C46.5626 59.7105 46.7533 60.4987 46.7533 61.3759C46.7533 62.3294 46.5372 63.1748 46.1049 63.9121C45.6854 64.6368 45.1006 65.2089 44.3506 65.6284C43.6132 66.0352 42.7424 66.2386 41.738 66.2386ZM47.9513 62.1768C47.9513 61.2361 48.2373 60.4288 48.8094 59.755C49.3815 59.0685 50.1442 58.6363 51.0977 58.4583L51.1168 58.8587C50.265 58.6299 49.6039 58.2358 49.1336 57.6764C48.6759 57.1043 48.4471 56.4115 48.4471 55.5979C48.4471 54.8732 48.6378 54.2439 49.0191 53.71C49.4005 53.1633 49.9345 52.7375 50.621 52.4323C51.3202 52.1272 52.1275 51.9747 53.0428 51.9747C53.9454 51.9747 54.7336 52.1272 55.4074 52.4323C56.0939 52.7375 56.6278 53.1633 57.0092 53.71C57.3906 54.2567 57.5813 54.8923 57.5813 55.6169C57.5813 56.4306 57.3461 57.1234 56.8757 57.6955C56.4181 58.2549 55.7634 58.6363 54.9116 58.8397L54.8925 58.4773C55.5282 58.5663 56.0875 58.7888 56.5706 59.1448C57.0537 59.488 57.4287 59.9203 57.6957 60.4415C57.9627 60.9627 58.0962 61.5475 58.0962 62.1959C58.0962 62.9968 57.8801 63.7024 57.4478 64.3126C57.0283 64.9228 56.4371 65.3995 55.6744 65.7428C54.9243 66.0733 54.0408 66.2386 53.0237 66.2386C52.0067 66.2386 51.1168 66.0733 50.354 65.7428C49.5912 65.3995 49.0001 64.9228 48.5805 64.3126C48.161 63.7024 47.9513 62.9904 47.9513 62.1768ZM49.7819 62.0433C49.7819 62.5518 49.9154 62.9968 50.1824 63.3782C50.4493 63.7596 50.8244 64.0583 51.3075 64.2744C51.8033 64.4779 52.3754 64.5796 53.0237 64.5796C53.6721 64.5796 54.2378 64.4779 54.7209 64.2744C55.204 64.0583 55.579 63.7596 55.846 63.3782C56.113 62.9968 56.2464 62.5518 56.2464 62.0433C56.2464 61.2806 55.954 60.6767 55.3693 60.2317C54.7845 59.7741 53.9963 59.5452 53.0046 59.5452C52.0257 59.5452 51.2439 59.7741 50.6591 60.2317C50.0743 60.6767 49.7819 61.2806 49.7819 62.0433ZM50.1633 55.7123C50.1633 56.3861 50.4176 56.9264 50.9261 57.3332C51.4473 57.74 52.1402 57.9434 53.0046 57.9434C53.8691 57.9434 54.5556 57.7464 55.0641 57.3523C55.5727 56.9454 55.8269 56.4115 55.8269 55.7504C55.8269 55.0893 55.5727 54.5681 55.0641 54.1867C54.5556 53.7926 53.8691 53.5956 53.0046 53.5956C52.1402 53.5956 51.4473 53.7926 50.9261 54.1867C50.4176 54.5681 50.1633 55.0766 50.1633 55.7123Z" fill="#1E1E1E"/>
<path d="M65.5891 49.4991V56.0098H64.7066V49.4991H65.5891ZM67.237 53.6865H65.391V52.894H67.0479C67.4862 52.894 67.8223 52.777 68.0565 52.5428C68.2906 52.3027 68.4077 51.9815 68.4077 51.5793C68.4077 51.1711 68.2906 50.8559 68.0565 50.6338C67.8223 50.4057 67.4982 50.2916 67.0839 50.2916H65.1929V49.4991H67.237C67.6633 49.4991 68.0325 49.5862 68.3446 49.7603C68.6568 49.9344 68.8999 50.1775 69.074 50.4897C69.2481 50.8019 69.3352 51.1681 69.3352 51.5883C69.3352 51.9905 69.2481 52.3507 69.074 52.6689C68.8999 52.9871 68.6568 53.2362 68.3446 53.4163C68.0325 53.5964 67.6633 53.6865 67.237 53.6865ZM69.7764 51.2551C69.7764 50.8829 69.8695 50.5557 70.0556 50.2736C70.2417 49.9914 70.5028 49.7723 70.839 49.6162C71.1812 49.4601 71.5744 49.3821 72.0187 49.3821C72.4329 49.3821 72.7931 49.4571 73.0993 49.6072C73.4115 49.7513 73.6546 49.9584 73.8287 50.2286C74.0088 50.4987 74.1108 50.8229 74.1349 51.2011H73.2434C73.2193 50.8769 73.0993 50.6248 72.8832 50.4447C72.667 50.2646 72.3759 50.1745 72.0097 50.1745C71.6014 50.1745 71.2743 50.2706 71.0281 50.4627C70.782 50.6488 70.6589 50.9039 70.6589 51.2281C70.6589 51.4923 70.734 51.7054 70.884 51.8675C71.0341 52.0236 71.2623 52.1376 71.5684 52.2097L72.64 52.4618C73.1743 52.5819 73.5735 52.789 73.8377 53.0831C74.1078 53.3713 74.2429 53.7435 74.2429 54.1998C74.2429 54.59 74.1469 54.9292 73.9548 55.2173C73.7686 55.5055 73.5015 55.7276 73.1533 55.8837C72.8111 56.0398 72.4089 56.1178 71.9466 56.1178C71.5084 56.1178 71.1212 56.0458 70.785 55.9017C70.4548 55.7516 70.1937 55.5415 70.0016 55.2714C69.8155 54.9952 69.7104 54.674 69.6864 54.3078H70.5869C70.5929 54.62 70.719 54.8691 70.9651 55.0552C71.2112 55.2353 71.5384 55.3254 71.9466 55.3254C72.3789 55.3254 72.7211 55.2293 72.9732 55.0372C73.2314 54.8451 73.3604 54.59 73.3604 54.2718C73.3604 54.0137 73.2884 53.8035 73.1443 53.6415C73.0002 53.4794 72.7721 53.3623 72.4599 53.2903L71.3883 53.0471C70.86 52.9271 70.4578 52.7169 70.1817 52.4168C69.9115 52.1106 69.7764 51.7234 69.7764 51.2551ZM76.0543 49.4991V56.0098H75.1718V49.4991H76.0543Z" fill="#757575"/>
<circle cx="99.0162" cy="59.0094" r="3.98495" fill="#FF4848"/>
<circle cx="111.224" cy="59.0094" r="3.98495" fill="#FF4848"/>
<circle cx="123.432" cy="59.0094" r="3.98495" fill="#FF4848"/>
<path d="M25.7129 102.652C25.7129 100.184 27.7141 98.1826 30.1828 98.1826H52.6163C56.1135 98.1826 58.9486 101.018 58.9486 104.515V125.083C58.9486 128.58 56.1135 131.415 52.6163 131.415H30.1827C27.7141 131.415 25.7129 129.414 25.7129 126.946V102.652Z" fill="#FF4848"/>
<path d="M59.8369 103.167C59.8369 102.732 60.1895 102.38 60.6243 102.38C61.0592 102.38 61.4117 102.732 61.4117 103.167V126.426C61.4117 126.861 61.0592 127.214 60.6243 127.214C60.1895 127.214 59.8369 126.861 59.8369 126.426V103.167Z" fill="#757575"/>
<path d="M127.416 100.418C127.416 99.1832 126.415 98.1826 125.181 98.1826H68.6337C65.1365 98.1826 62.3014 101.018 62.3014 104.515V125.083C62.3014 128.58 65.1365 131.415 68.6337 131.415H125.181C126.415 131.415 127.416 130.415 127.416 129.18V100.418Z" fill="#D2D2DA"/>
<path opacity="0.37" d="M31.5097 90.3369L29.0513 83.8735H29.99L31.5634 88.0036C31.6349 88.1824 31.7034 88.3702 31.769 88.5668C31.8345 88.7576 31.9001 88.9751 31.9657 89.2194C32.0431 88.9632 32.1176 88.7307 32.1892 88.5222C32.2607 88.3136 32.3232 88.1377 32.3769 87.9947L33.9413 83.8735H34.8532L32.4216 90.3369H31.5097ZM35.1589 90.4442C34.9861 90.4442 34.8341 90.3846 34.703 90.2654C34.5778 90.1402 34.5152 89.9912 34.5152 89.8184C34.5152 89.6396 34.5778 89.4906 34.703 89.3714C34.8341 89.2463 34.9861 89.1837 35.1589 89.1837C35.3317 89.1837 35.4807 89.2463 35.6059 89.3714C35.731 89.4906 35.7936 89.6396 35.7936 89.8184C35.7936 89.9912 35.731 90.1402 35.6059 90.2654C35.4807 90.3846 35.3317 90.4442 35.1589 90.4442ZM36.825 90.3369V85.9654H37.6653V90.3369H36.825ZM37.2362 84.9284C37.0872 84.9284 36.9561 84.8747 36.8428 84.7675C36.7356 84.6542 36.6819 84.5231 36.6819 84.3741C36.6819 84.2192 36.7356 84.088 36.8428 83.9808C36.9561 83.8735 37.0872 83.8199 37.2362 83.8199C37.3911 83.8199 37.5223 83.8735 37.6295 83.9808C37.7368 84.088 37.7904 84.2192 37.7904 84.3741C37.7904 84.5231 37.7368 84.6542 37.6295 84.7675C37.5223 84.8747 37.3911 84.9284 37.2362 84.9284ZM39.5468 90.3369H38.7065V85.9654H39.4664L39.5558 86.6359C39.6928 86.3856 39.8895 86.1919 40.1458 86.0548C40.408 85.9118 40.6941 85.8402 41.004 85.8402C41.5761 85.8402 41.9993 86.0041 42.2734 86.3319C42.5476 86.6597 42.6847 87.1037 42.6847 87.6639V90.3369H41.8443V87.8517C41.8443 87.4106 41.749 87.0948 41.5583 86.9041C41.3675 86.7074 41.1113 86.6091 40.7894 86.6091C40.3961 86.6091 40.0892 86.7372 39.8687 86.9935C39.6541 87.2497 39.5468 87.5924 39.5468 88.0215V90.3369Z" fill="#757575"/>
<path d="M110.267 124.114L105.904 124.123V123.453L107.987 121.656C108.25 121.435 108.467 121.236 108.64 121.057C108.813 120.878 108.95 120.714 109.051 120.565C109.152 120.41 109.224 120.258 109.266 120.109C109.307 119.96 109.328 119.799 109.328 119.626C109.328 119.221 109.218 118.905 108.998 118.679C108.783 118.446 108.479 118.33 108.086 118.33C107.686 118.33 107.365 118.467 107.12 118.741C106.882 119.01 106.76 119.373 106.754 119.832H105.878C105.889 119.373 105.988 118.971 106.173 118.625C106.357 118.279 106.614 118.014 106.941 117.829C107.275 117.639 107.66 117.543 108.095 117.543C108.53 117.543 108.905 117.627 109.221 117.794C109.537 117.961 109.781 118.196 109.954 118.5C110.133 118.798 110.222 119.156 110.222 119.573C110.222 119.799 110.192 120.017 110.133 120.225C110.073 120.428 109.978 120.631 109.847 120.833C109.722 121.03 109.558 121.236 109.355 121.45C109.152 121.659 108.908 121.888 108.622 122.138L106.932 123.605L106.637 123.301H110.267V124.114ZM113.006 124.23C112.565 124.23 112.18 124.144 111.853 123.971C111.531 123.792 111.277 123.545 111.093 123.229C110.914 122.907 110.824 122.532 110.824 122.103H111.692C111.692 122.52 111.811 122.848 112.049 123.086C112.288 123.324 112.612 123.444 113.024 123.444C113.316 123.444 113.569 123.384 113.783 123.265C113.998 123.14 114.165 122.97 114.284 122.755C114.403 122.535 114.463 122.278 114.463 121.986C114.463 121.706 114.406 121.459 114.293 121.244C114.18 121.024 114.016 120.851 113.801 120.726C113.593 120.601 113.337 120.538 113.033 120.538C112.764 120.538 112.511 120.598 112.273 120.717C112.034 120.83 111.841 120.979 111.692 121.164L110.95 120.976L111.736 117.66H114.972V118.464H112.058L112.46 118.107L111.861 120.511L111.566 120.574C111.733 120.318 111.96 120.124 112.246 119.993C112.532 119.856 112.848 119.787 113.193 119.787C113.635 119.787 114.016 119.883 114.338 120.073C114.66 120.258 114.91 120.514 115.089 120.842C115.267 121.17 115.357 121.539 115.357 121.951C115.357 122.398 115.256 122.794 115.053 123.14C114.856 123.479 114.582 123.748 114.23 123.944C113.885 124.135 113.477 124.23 113.006 124.23ZM115.918 122.326C115.918 121.885 116.053 121.507 116.321 121.191C116.589 120.869 116.947 120.666 117.394 120.583L117.402 120.771C117.003 120.663 116.693 120.479 116.473 120.216C116.258 119.948 116.151 119.623 116.151 119.242C116.151 118.902 116.24 118.607 116.419 118.357C116.598 118.101 116.848 117.901 117.17 117.758C117.498 117.615 117.876 117.543 118.305 117.543C118.729 117.543 119.098 117.615 119.414 117.758C119.736 117.901 119.986 118.101 120.165 118.357C120.344 118.613 120.433 118.911 120.433 119.251C120.433 119.632 120.323 119.957 120.102 120.225C119.888 120.488 119.581 120.666 119.181 120.762L119.173 120.592C119.471 120.634 119.733 120.738 119.959 120.905C120.186 121.066 120.362 121.268 120.487 121.513C120.612 121.757 120.674 122.031 120.674 122.335C120.674 122.711 120.573 123.041 120.37 123.327C120.174 123.613 119.897 123.837 119.539 123.998C119.187 124.153 118.773 124.23 118.296 124.23C117.82 124.23 117.402 124.153 117.045 123.998C116.687 123.837 116.41 123.613 116.213 123.327C116.017 123.041 115.918 122.708 115.918 122.326ZM116.777 122.264C116.777 122.502 116.839 122.711 116.964 122.889C117.09 123.068 117.265 123.208 117.492 123.31C117.724 123.405 117.993 123.453 118.296 123.453C118.6 123.453 118.866 123.405 119.092 123.31C119.319 123.208 119.494 123.068 119.62 122.889C119.745 122.711 119.807 122.502 119.807 122.264C119.807 121.906 119.67 121.623 119.396 121.414C119.122 121.2 118.752 121.092 118.288 121.092C117.829 121.092 117.462 121.2 117.188 121.414C116.914 121.623 116.777 121.906 116.777 122.264ZM116.955 119.296C116.955 119.611 117.075 119.865 117.313 120.055C117.557 120.246 117.882 120.342 118.288 120.342C118.693 120.342 119.015 120.249 119.253 120.064C119.491 119.874 119.611 119.623 119.611 119.313C119.611 119.004 119.491 118.759 119.253 118.58C119.015 118.396 118.693 118.303 118.288 118.303C117.882 118.303 117.557 118.396 117.313 118.58C117.075 118.759 116.955 118.998 116.955 119.296Z" fill="white"/>
<path opacity="0.37" d="M105.597 90.3369L103.138 83.8735H104.077L105.65 88.0036C105.722 88.1824 105.79 88.3702 105.856 88.5668C105.921 88.7576 105.987 88.9751 106.053 89.2194C106.13 88.9632 106.205 88.7307 106.276 88.5222C106.348 88.3136 106.41 88.1377 106.464 87.9947L108.028 83.8735H108.94L106.509 90.3369H105.597ZM109.246 90.4442C109.073 90.4442 108.921 90.3846 108.79 90.2654C108.665 90.1402 108.602 89.9912 108.602 89.8184C108.602 89.6396 108.665 89.4906 108.79 89.3714C108.921 89.2463 109.073 89.1837 109.246 89.1837C109.419 89.1837 109.568 89.2463 109.693 89.3714C109.818 89.4906 109.881 89.6396 109.881 89.8184C109.881 89.9912 109.818 90.1402 109.693 90.2654C109.568 90.3846 109.419 90.4442 109.246 90.4442ZM110.355 88.1467C110.355 87.6997 110.454 87.3034 110.65 86.9577C110.847 86.612 111.115 86.3409 111.455 86.1442C111.8 85.9475 112.194 85.8492 112.635 85.8492C113.076 85.8492 113.466 85.9475 113.806 86.1442C114.146 86.3409 114.414 86.612 114.61 86.9577C114.807 87.3034 114.905 87.6997 114.905 88.1467C114.905 88.5937 114.807 88.99 114.61 89.3357C114.414 89.6813 114.146 89.9525 113.806 90.1492C113.466 90.3459 113.076 90.4442 112.635 90.4442C112.194 90.4442 111.8 90.3459 111.455 90.1492C111.115 89.9525 110.847 89.6813 110.65 89.3357C110.454 88.99 110.355 88.5937 110.355 88.1467ZM111.204 88.1467C111.204 88.4506 111.264 88.7188 111.383 88.9513C111.508 89.1837 111.678 89.3655 111.893 89.4966C112.107 89.6277 112.355 89.6933 112.635 89.6933C112.915 89.6933 113.162 89.6277 113.377 89.4966C113.591 89.3655 113.758 89.1837 113.877 88.9513C114.003 88.7188 114.065 88.4506 114.065 88.1467C114.065 87.8368 114.003 87.5686 113.877 87.3421C113.758 87.1097 113.591 86.9279 113.377 86.7968C113.162 86.6657 112.915 86.6001 112.635 86.6001C112.355 86.6001 112.107 86.6657 111.893 86.7968C111.678 86.9279 111.508 87.1097 111.383 87.3421C111.264 87.5686 111.204 87.8368 111.204 88.1467ZM118.574 85.9654H119.405V90.3369H118.654L118.565 89.6754C118.44 89.9018 118.243 90.0866 117.975 90.2296C117.707 90.3727 117.412 90.4442 117.09 90.4442C116.583 90.4442 116.19 90.2863 115.91 89.9704C115.636 89.6486 115.499 89.2194 115.499 88.6831V85.9654H116.339V88.4059C116.339 88.8708 116.431 89.2045 116.616 89.4072C116.807 89.6039 117.063 89.7022 117.385 89.7022C117.772 89.7022 118.067 89.583 118.27 89.3446C118.472 89.1003 118.574 88.7427 118.574 88.2718V85.9654ZM119.981 85.9654H122.537V86.6716H119.981V85.9654ZM121.679 90.3369H120.839V84.5976H121.679V90.3369Z" fill="#757575"/>
<g clip-path="url(#clip0_925_16647)">
<line x1="25.7688" y1="99.873" x2="42.6892" y2="173.163" stroke="#F33737" stroke-width="0.529706"/>
<line x1="23.4212" y1="100.96" x2="40.3416" y2="174.25" stroke="#F33737" stroke-width="0.529706"/>
<line x1="21.0745" y1="102.046" x2="37.9949" y2="175.336" stroke="#F33737" stroke-width="0.529706"/>
<line x1="18.7258" y1="103.132" x2="35.6463" y2="176.422" stroke="#F33737" stroke-width="0.529706"/>
<line x1="28.0374" y1="97.791" x2="44.9578" y2="171.081" stroke="#F33737" stroke-width="0.529706"/>
<line x1="30.3069" y1="95.708" x2="47.2273" y2="168.998" stroke="#F33737" stroke-width="0.529706"/>
<line x1="32.5764" y1="93.625" x2="49.4968" y2="166.915" stroke="#F33737" stroke-width="0.529706"/>
<line x1="34.846" y1="91.5439" x2="51.7664" y2="164.834" stroke="#F33737" stroke-width="0.529706"/>
<line x1="37.1155" y1="89.4619" x2="54.0359" y2="162.752" stroke="#F33737" stroke-width="0.529706"/>
<line x1="39.385" y1="87.3789" x2="56.3054" y2="160.669" stroke="#F33737" stroke-width="0.529706"/>
<line x1="41.6545" y1="85.2969" x2="58.575" y2="158.587" stroke="#F33737" stroke-width="0.529706"/>
<line x1="43.9241" y1="83.2148" x2="60.8445" y2="156.505" stroke="#F33737" stroke-width="0.529706"/>
<line x1="46.1936" y1="81.1318" x2="63.114" y2="154.422" stroke="#F33737" stroke-width="0.529706"/>
<line x1="48.4622" y1="79.0498" x2="65.3826" y2="152.34" stroke="#F33737" stroke-width="0.529706"/>
<line x1="50.7317" y1="76.9678" x2="67.6521" y2="150.258" stroke="#F33737" stroke-width="0.529706"/>
<line x1="53.0012" y1="74.8848" x2="69.9217" y2="148.175" stroke="#F33737" stroke-width="0.529706"/>
<line x1="55.2708" y1="72.8027" x2="72.1912" y2="146.093" stroke="#F33737" stroke-width="0.529706"/>
<line x1="57.5393" y1="70.7207" x2="74.4597" y2="144.011" stroke="#F33737" stroke-width="0.529706"/>
</g>
<path d="M34.7357 125.114L30.3731 125.123V124.453L32.4561 122.656C32.7183 122.435 32.9359 122.236 33.1087 122.057C33.2815 121.878 33.4186 121.714 33.5199 121.565C33.6212 121.41 33.6928 121.258 33.7345 121.109C33.7762 120.96 33.7971 120.799 33.7971 120.626C33.7971 120.221 33.6868 119.905 33.4663 119.679C33.2517 119.446 32.9478 119.33 32.5544 119.33C32.1551 119.33 31.8333 119.467 31.5889 119.741C31.3506 120.01 31.2284 120.373 31.2224 120.832H30.3463C30.3582 120.373 30.4566 119.971 30.6413 119.625C30.8261 119.279 31.0824 119.014 31.4101 118.829C31.7439 118.639 32.1283 118.543 32.5634 118.543C32.9984 118.543 33.3739 118.627 33.6898 118.794C34.0056 118.961 34.25 119.196 34.4228 119.5C34.6016 119.798 34.691 120.156 34.691 120.573C34.691 120.799 34.6612 121.017 34.6016 121.225C34.542 121.428 34.4467 121.631 34.3156 121.833C34.1904 122.03 34.0265 122.236 33.8239 122.45C33.6212 122.659 33.3769 122.888 33.0908 123.138L31.4012 124.605L31.1062 124.301H34.7357V125.114ZM36.6319 119.446H35.273V118.66H37.4722V125.123H36.6319V119.446Z" fill="white"/>
<rect x="152.162" y="17" width="127.129" height="127.129" rx="16.4209" fill="#F8F8F8"/>
<path d="M166.996 40.7129H165.854V32.2874H169.035C169.937 32.2874 170.64 32.5127 171.145 32.9633C171.657 33.4061 171.914 34.0238 171.914 34.8162C171.914 35.3989 171.77 35.8922 171.483 36.2962C171.203 36.7002 170.803 36.9876 170.282 37.1586L171.995 40.7129H170.725L169.152 37.38H166.996V40.7129ZM166.996 33.3129V36.3661H169.047C169.575 36.3661 169.983 36.2302 170.271 35.9583C170.566 35.6863 170.713 35.3095 170.713 34.8279C170.713 34.3384 170.562 33.9655 170.259 33.7091C169.964 33.445 169.556 33.3129 169.035 33.3129H166.996ZM174.388 32.2874V40.7129H173.246V32.2874H174.388ZM176.52 37.7063H174.131V36.6808H176.276C176.843 36.6808 177.278 36.5293 177.581 36.2263C177.884 35.9155 178.035 35.4999 178.035 34.9794C178.035 34.4511 177.884 34.0432 177.581 33.7557C177.278 33.4605 176.858 33.3129 176.322 33.3129H173.875V32.2874H176.52C177.072 32.2874 177.55 32.4 177.954 32.6253C178.358 32.8506 178.672 33.1653 178.898 33.5693C179.123 33.9733 179.236 34.4472 179.236 34.991C179.236 35.5115 179.123 35.9777 178.898 36.3894C178.672 36.8012 178.358 37.1236 177.954 37.3567C177.55 37.5897 177.072 37.7063 176.52 37.7063Z" fill="#757575"/>
<path d="M173.838 61.6429L170.615 66.0098H168.441L172.388 60.7657L172.808 60.8992C172.439 61.1661 172.051 61.3695 171.645 61.5094C171.251 61.6492 170.85 61.7191 170.443 61.7191C169.49 61.7191 168.651 61.5094 167.926 61.0899C167.214 60.6703 166.655 60.0982 166.248 59.3736C165.854 58.649 165.657 57.829 165.657 56.9137C165.657 55.9602 165.873 55.1148 166.305 54.3774C166.75 53.6274 167.348 53.0426 168.098 52.623C168.861 52.1908 169.719 51.9747 170.672 51.9747C171.626 51.9747 172.484 52.1972 173.246 52.6421C174.022 53.0743 174.632 53.6655 175.077 54.4156C175.522 55.1529 175.745 55.992 175.745 56.9327C175.745 57.4667 175.681 57.9752 175.554 58.4583C175.439 58.9287 175.242 59.4181 174.963 59.9266C174.683 60.4224 174.308 60.9945 173.838 61.6429ZM173.838 56.9137C173.838 56.278 173.704 55.7186 173.437 55.2355C173.17 54.7397 172.795 54.352 172.312 54.0723C171.842 53.7926 171.295 53.6528 170.672 53.6528C170.062 53.6528 169.522 53.7926 169.051 54.0723C168.581 54.352 168.212 54.7397 167.945 55.2355C167.678 55.7186 167.545 56.278 167.545 56.9137C167.545 57.5366 167.678 58.096 167.945 58.5918C168.212 59.0749 168.581 59.4562 169.051 59.7359C169.522 60.0029 170.062 60.1364 170.672 60.1364C171.295 60.1364 171.842 60.0029 172.312 59.7359C172.795 59.4562 173.17 59.0749 173.437 58.5918C173.704 58.096 173.838 57.5366 173.838 56.9137ZM176.88 62.1768C176.88 61.2361 177.166 60.4288 177.738 59.755C178.31 59.0685 179.073 58.6363 180.026 58.4583L180.045 58.8587C179.194 58.6299 178.533 58.2358 178.062 57.6764C177.605 57.1043 177.376 56.4115 177.376 55.5979C177.376 54.8732 177.566 54.2439 177.948 53.71C178.329 53.1633 178.863 52.7375 179.55 52.4323C180.249 52.1272 181.056 51.9747 181.971 51.9747C182.874 51.9747 183.662 52.1272 184.336 52.4323C185.023 52.7375 185.557 53.1633 185.938 53.71C186.319 54.2567 186.51 54.8923 186.51 55.6169C186.51 56.4306 186.275 57.1234 185.804 57.6955C185.347 58.2549 184.692 58.6363 183.84 58.8397L183.821 58.4773C184.457 58.5663 185.016 58.7888 185.499 59.1448C185.982 59.488 186.357 59.9203 186.624 60.4415C186.891 60.9627 187.025 61.5475 187.025 62.1959C187.025 62.9968 186.809 63.7024 186.377 64.3126C185.957 64.9228 185.366 65.3995 184.603 65.7428C183.853 66.0733 182.969 66.2386 181.952 66.2386C180.935 66.2386 180.045 66.0733 179.283 65.7428C178.52 65.3995 177.929 64.9228 177.509 64.3126C177.09 63.7024 176.88 62.9904 176.88 62.1768ZM178.711 62.0433C178.711 62.5518 178.844 62.9968 179.111 63.3782C179.378 63.7596 179.753 64.0583 180.236 64.2744C180.732 64.4779 181.304 64.5796 181.952 64.5796C182.601 64.5796 183.166 64.4779 183.65 64.2744C184.133 64.0583 184.508 63.7596 184.775 63.3782C185.042 62.9968 185.175 62.5518 185.175 62.0433C185.175 61.2806 184.883 60.6767 184.298 60.2317C183.713 59.7741 182.925 59.5452 181.933 59.5452C180.954 59.5452 180.173 59.7741 179.588 60.2317C179.003 60.6767 178.711 61.2806 178.711 62.0433ZM179.092 55.7123C179.092 56.3861 179.346 56.9264 179.855 57.3332C180.376 57.74 181.069 57.9434 181.933 57.9434C182.798 57.9434 183.484 57.7464 183.993 57.3523C184.501 56.9454 184.756 56.4115 184.756 55.7504C184.756 55.0893 184.501 54.5681 183.993 54.1867C183.484 53.7926 182.798 53.5956 181.933 53.5956C181.069 53.5956 180.376 53.7926 179.855 54.1867C179.346 54.5681 179.092 55.0766 179.092 55.7123Z" fill="#1E1E1E"/>
<path d="M194.751 49.4991V56.0098H193.869V49.4991H194.751ZM196.399 53.6865H194.553V52.894H196.21C196.648 52.894 196.984 52.777 197.219 52.5428C197.453 52.3027 197.57 51.9815 197.57 51.5793C197.57 51.1711 197.453 50.8559 197.219 50.6338C196.984 50.4057 196.66 50.2916 196.246 50.2916H194.355V49.4991H196.399C196.825 49.4991 197.195 49.5862 197.507 49.7603C197.819 49.9344 198.062 50.1775 198.236 50.4897C198.41 50.8019 198.497 51.1681 198.497 51.5883C198.497 51.9905 198.41 52.3507 198.236 52.6689C198.062 52.9871 197.819 53.2362 197.507 53.4163C197.195 53.5964 196.825 53.6865 196.399 53.6865ZM198.939 51.2551C198.939 50.8829 199.032 50.5557 199.218 50.2736C199.404 49.9914 199.665 49.7723 200.001 49.6162C200.343 49.4601 200.737 49.3821 201.181 49.3821C201.595 49.3821 201.955 49.4571 202.261 49.6072C202.574 49.7513 202.817 49.9584 202.991 50.2286C203.171 50.4987 203.273 50.8229 203.297 51.2011H202.405C202.381 50.8769 202.261 50.6248 202.045 50.4447C201.829 50.2646 201.538 50.1745 201.172 50.1745C200.764 50.1745 200.436 50.2706 200.19 50.4627C199.944 50.6488 199.821 50.9039 199.821 51.2281C199.821 51.4923 199.896 51.7054 200.046 51.8675C200.196 52.0236 200.424 52.1376 200.731 52.2097L201.802 52.4618C202.336 52.5819 202.736 52.789 203 53.0831C203.27 53.3713 203.405 53.7435 203.405 54.1998C203.405 54.59 203.309 54.9292 203.117 55.2173C202.931 55.5055 202.664 55.7276 202.315 55.8837C201.973 56.0398 201.571 56.1178 201.109 56.1178C200.671 56.1178 200.283 56.0458 199.947 55.9017C199.617 55.7516 199.356 55.5415 199.164 55.2714C198.978 54.9952 198.873 54.674 198.848 54.3078H199.749C199.755 54.62 199.881 54.8691 200.127 55.0552C200.373 55.2353 200.701 55.3254 201.109 55.3254C201.541 55.3254 201.883 55.2293 202.135 55.0372C202.393 54.8451 202.523 54.59 202.523 54.2718C202.523 54.0137 202.45 53.8035 202.306 53.6415C202.162 53.4794 201.934 53.3623 201.622 53.2903L200.55 53.0471C200.022 52.9271 199.62 52.7169 199.344 52.4168C199.074 52.1106 198.939 51.7234 198.939 51.2551ZM205.216 49.4991V56.0098H204.334V49.4991H205.216Z" fill="#757575"/>
<circle cx="238.178" cy="59.0094" r="3.98495" fill="#FFBD5B"/>
<circle cx="250.386" cy="59.0094" r="3.98495" fill="#FFBD5B"/>
<circle cx="262.594" cy="59.0094" r="3.98495" fill="#FFBD5B"/>
<path d="M266.578 102.652C266.578 100.184 264.577 98.1826 262.108 98.1826H239.675C236.178 98.1826 233.342 101.018 233.342 104.515V125.083C233.342 128.58 236.178 131.415 239.675 131.415H262.108C264.577 131.415 266.578 129.414 266.578 126.946V102.652Z" fill="#FFBD5B"/>
<path d="M232.454 103.167C232.454 102.732 232.102 102.38 231.667 102.38C231.232 102.38 230.879 102.732 230.879 103.167V126.426C230.879 126.861 231.232 127.214 231.667 127.214C232.102 127.214 232.454 126.861 232.454 126.426V103.167Z" fill="#757575"/>
<path d="M164.875 100.418C164.875 99.1832 165.876 98.1826 167.11 98.1826H223.657C227.155 98.1826 229.99 101.018 229.99 104.515V125.083C229.99 128.58 227.155 131.415 223.657 131.415H167.11C165.876 131.415 164.875 130.415 164.875 129.18V100.418Z" fill="#D2D2DA"/>
<path opacity="0.37" d="M167.767 90.3369L165.308 83.8735H166.247L167.82 88.0036C167.892 88.1824 167.96 88.3702 168.026 88.5668C168.091 88.7576 168.157 88.9751 168.222 89.2194C168.3 88.9632 168.374 88.7307 168.446 88.5222C168.518 88.3136 168.58 88.1377 168.634 87.9947L170.198 83.8735H171.11L168.678 90.3369H167.767ZM171.416 90.4442C171.243 90.4442 171.091 90.3846 170.96 90.2654C170.835 90.1402 170.772 89.9912 170.772 89.8184C170.772 89.6396 170.835 89.4906 170.96 89.3714C171.091 89.2463 171.243 89.1837 171.416 89.1837C171.589 89.1837 171.738 89.2463 171.863 89.3714C171.988 89.4906 172.05 89.6396 172.05 89.8184C172.05 89.9912 171.988 90.1402 171.863 90.2654C171.738 90.3846 171.589 90.4442 171.416 90.4442ZM173.082 90.3369V85.9654H173.922V90.3369H173.082ZM173.493 84.9284C173.344 84.9284 173.213 84.8747 173.1 84.7675C172.992 84.6542 172.939 84.5231 172.939 84.3741C172.939 84.2192 172.992 84.088 173.1 83.9808C173.213 83.8735 173.344 83.8199 173.493 83.8199C173.648 83.8199 173.779 83.8735 173.886 83.9808C173.994 84.088 174.047 84.2192 174.047 84.3741C174.047 84.5231 173.994 84.6542 173.886 84.7675C173.779 84.8747 173.648 84.9284 173.493 84.9284ZM175.804 90.3369H174.963V85.9654H175.723L175.813 86.6359C175.95 86.3856 176.146 86.1919 176.403 86.0548C176.665 85.9118 176.951 85.8402 177.261 85.8402C177.833 85.8402 178.256 86.0041 178.53 86.3319C178.804 86.6597 178.942 87.1037 178.942 87.6639V90.3369H178.101V87.8517C178.101 87.4106 178.006 87.0948 177.815 86.9041C177.624 86.7074 177.368 86.6091 177.046 86.6091C176.653 86.6091 176.346 86.7372 176.125 86.9935C175.911 87.2497 175.804 87.5924 175.804 88.0215V90.3369Z" fill="#757575"/>
<path opacity="0.37" d="M241.853 90.3369L239.395 83.8735H240.334L241.907 88.0036C241.979 88.1824 242.047 88.3702 242.113 88.5668C242.178 88.7576 242.244 88.9751 242.309 89.2194C242.387 88.9632 242.461 88.7307 242.533 88.5222C242.604 88.3136 242.667 88.1377 242.721 87.9947L244.285 83.8735H245.197L242.765 90.3369H241.853ZM245.503 90.4442C245.33 90.4442 245.178 90.3846 245.047 90.2654C244.922 90.1402 244.859 89.9912 244.859 89.8184C244.859 89.6396 244.922 89.4906 245.047 89.3714C245.178 89.2463 245.33 89.1837 245.503 89.1837C245.675 89.1837 245.824 89.2463 245.95 89.3714C246.075 89.4906 246.137 89.6396 246.137 89.8184C246.137 89.9912 246.075 90.1402 245.95 90.2654C245.824 90.3846 245.675 90.4442 245.503 90.4442ZM246.612 88.1467C246.612 87.6997 246.71 87.3034 246.907 86.9577C247.104 86.612 247.372 86.3409 247.712 86.1442C248.057 85.9475 248.451 85.8492 248.892 85.8492C249.333 85.8492 249.723 85.9475 250.063 86.1442C250.402 86.3409 250.671 86.612 250.867 86.9577C251.064 87.3034 251.162 87.6997 251.162 88.1467C251.162 88.5937 251.064 88.99 250.867 89.3357C250.671 89.6813 250.402 89.9525 250.063 90.1492C249.723 90.3459 249.333 90.4442 248.892 90.4442C248.451 90.4442 248.057 90.3459 247.712 90.1492C247.372 89.9525 247.104 89.6813 246.907 89.3357C246.71 88.99 246.612 88.5937 246.612 88.1467ZM247.461 88.1467C247.461 88.4506 247.521 88.7188 247.64 88.9513C247.765 89.1837 247.935 89.3655 248.15 89.4966C248.364 89.6277 248.612 89.6933 248.892 89.6933C249.172 89.6933 249.419 89.6277 249.634 89.4966C249.848 89.3655 250.015 89.1837 250.134 88.9513C250.259 88.7188 250.322 88.4506 250.322 88.1467C250.322 87.8368 250.259 87.5686 250.134 87.3421C250.015 87.1097 249.848 86.9279 249.634 86.7968C249.419 86.6657 249.172 86.6001 248.892 86.6001C248.612 86.6001 248.364 86.6657 248.15 86.7968C247.935 86.9279 247.765 87.1097 247.64 87.3421C247.521 87.5686 247.461 87.8368 247.461 88.1467ZM254.831 85.9654H255.662V90.3369H254.911L254.822 89.6754C254.697 89.9018 254.5 90.0866 254.232 90.2296C253.963 90.3727 253.668 90.4442 253.347 90.4442C252.84 90.4442 252.447 90.2863 252.167 89.9704C251.892 89.6486 251.755 89.2194 251.755 88.6831V85.9654H252.596V88.4059C252.596 88.8708 252.688 89.2045 252.873 89.4072C253.064 89.6039 253.32 89.7022 253.642 89.7022C254.029 89.7022 254.324 89.583 254.527 89.3446C254.729 89.1003 254.831 88.7427 254.831 88.2718V85.9654ZM256.238 85.9654H258.794V86.6716H256.238V85.9654ZM257.936 90.3369H257.096V84.5976H257.936V90.3369Z" fill="#757575"/>
<g clip-path="url(#clip1_925_16647)">
<line y1="-0.264853" x2="75.2182" y2="-0.264853" transform="matrix(-0.224951 0.97437 0.97437 0.224951 266.78 99.9326)" stroke="#EEA63C" stroke-width="0.529706"/>
<line y1="-0.264853" x2="75.2182" y2="-0.264853" transform="matrix(-0.224951 0.97437 0.97437 0.224951 269.128 101.02)" stroke="#EEA63C" stroke-width="0.529706"/>
<line y1="-0.264853" x2="75.2182" y2="-0.264853" transform="matrix(-0.224951 0.97437 0.97437 0.224951 271.476 102.105)" stroke="#EEA63C" stroke-width="0.529706"/>
<line y1="-0.264853" x2="75.2182" y2="-0.264853" transform="matrix(-0.224951 0.97437 0.97437 0.224951 273.823 103.191)" stroke="#EEA63C" stroke-width="0.529706"/>
<line y1="-0.264853" x2="75.2182" y2="-0.264853" transform="matrix(-0.224951 0.97437 0.97437 0.224951 264.512 97.8506)" stroke="#EEA63C" stroke-width="0.529706"/>
<line y1="-0.264853" x2="75.2182" y2="-0.264853" transform="matrix(-0.224951 0.97437 0.97437 0.224951 262.242 95.7676)" stroke="#EEA63C" stroke-width="0.529706"/>
<line y1="-0.264853" x2="75.2182" y2="-0.264853" transform="matrix(-0.224951 0.97437 0.97437 0.224951 259.973 93.6846)" stroke="#EEA63C" stroke-width="0.529706"/>
<line y1="-0.264853" x2="75.2182" y2="-0.264853" transform="matrix(-0.224951 0.97437 0.97437 0.224951 257.703 91.6035)" stroke="#EEA63C" stroke-width="0.529706"/>
<line y1="-0.264853" x2="75.2182" y2="-0.264853" transform="matrix(-0.224951 0.97437 0.97437 0.224951 255.434 89.5215)" stroke="#EEA63C" stroke-width="0.529706"/>
<line y1="-0.264853" x2="75.2182" y2="-0.264853" transform="matrix(-0.224951 0.97437 0.97437 0.224951 253.164 87.4385)" stroke="#EEA63C" stroke-width="0.529706"/>
<line y1="-0.264853" x2="75.2182" y2="-0.264853" transform="matrix(-0.224951 0.97437 0.97437 0.224951 250.895 85.3564)" stroke="#EEA63C" stroke-width="0.529706"/>
<line y1="-0.264853" x2="75.2182" y2="-0.264853" transform="matrix(-0.224951 0.97437 0.97437 0.224951 248.625 83.2744)" stroke="#EEA63C" stroke-width="0.529706"/>
<line y1="-0.264853" x2="75.2182" y2="-0.264853" transform="matrix(-0.224951 0.97437 0.97437 0.224951 246.355 81.1914)" stroke="#EEA63C" stroke-width="0.529706"/>
<line y1="-0.264853" x2="75.2182" y2="-0.264853" transform="matrix(-0.224951 0.97437 0.97437 0.224951 244.087 79.1094)" stroke="#EEA63C" stroke-width="0.529706"/>
<line y1="-0.264853" x2="75.2182" y2="-0.264853" transform="matrix(-0.224951 0.97437 0.97437 0.224951 241.817 77.0273)" stroke="#EEA63C" stroke-width="0.529706"/>
<line y1="-0.264853" x2="75.2182" y2="-0.264853" transform="matrix(-0.224951 0.97437 0.97437 0.224951 239.548 74.9443)" stroke="#EEA63C" stroke-width="0.529706"/>
<line y1="-0.264853" x2="75.2182" y2="-0.264853" transform="matrix(-0.224951 0.97437 0.97437 0.224951 237.278 72.8623)" stroke="#EEA63C" stroke-width="0.529706"/>
<line y1="-0.264853" x2="75.2182" y2="-0.264853" transform="matrix(-0.224951 0.97437 0.97437 0.224951 235.01 70.7803)" stroke="#EEA63C" stroke-width="0.529706"/>
</g>
<path d="M173.47 124.228L169.108 124.237V123.567L171.19 121.77C171.453 121.549 171.67 121.35 171.843 121.171C172.016 120.992 172.153 120.828 172.254 120.679C172.356 120.524 172.427 120.372 172.469 120.223C172.511 120.074 172.531 119.913 172.531 119.741C172.531 119.335 172.421 119.019 172.201 118.793C171.986 118.561 171.682 118.444 171.289 118.444C170.89 118.444 170.568 118.581 170.323 118.856C170.085 119.124 169.963 119.487 169.957 119.946H169.081C169.093 119.487 169.191 119.085 169.376 118.739C169.56 118.394 169.817 118.128 170.145 117.944C170.478 117.753 170.863 117.658 171.298 117.658C171.733 117.658 172.108 117.741 172.424 117.908C172.74 118.075 172.984 118.31 173.157 118.614C173.336 118.912 173.425 119.27 173.425 119.687C173.425 119.913 173.396 120.131 173.336 120.34C173.276 120.542 173.181 120.745 173.05 120.947C172.925 121.144 172.761 121.35 172.558 121.564C172.356 121.773 172.111 122.002 171.825 122.253L170.136 123.719L169.841 123.415H173.47V124.228ZM175.366 118.561H174.007V117.774H176.207V124.237H175.366V118.561Z" fill="white"/>
<path d="M255.828 122.037L254.317 124.084H253.298L255.148 121.626L255.345 121.688C255.172 121.813 254.99 121.909 254.8 121.974C254.615 122.04 254.427 122.073 254.236 122.073C253.789 122.073 253.396 121.974 253.056 121.778C252.723 121.581 252.46 121.313 252.27 120.973C252.085 120.633 251.993 120.249 251.993 119.82C251.993 119.373 252.094 118.976 252.296 118.631C252.505 118.279 252.785 118.005 253.137 117.808C253.494 117.606 253.897 117.504 254.344 117.504C254.791 117.504 255.193 117.609 255.551 117.817C255.914 118.02 256.2 118.297 256.409 118.649C256.617 118.994 256.722 119.388 256.722 119.829C256.722 120.079 256.692 120.317 256.632 120.544C256.579 120.764 256.486 120.994 256.355 121.232C256.224 121.465 256.048 121.733 255.828 122.037ZM255.828 119.82C255.828 119.522 255.765 119.26 255.64 119.033C255.515 118.801 255.339 118.619 255.112 118.488C254.892 118.357 254.636 118.291 254.344 118.291C254.058 118.291 253.804 118.357 253.584 118.488C253.363 118.619 253.19 118.801 253.065 119.033C252.94 119.26 252.878 119.522 252.878 119.82C252.878 120.112 252.94 120.374 253.065 120.606C253.19 120.833 253.363 121.012 253.584 121.143C253.804 121.268 254.058 121.331 254.344 121.331C254.636 121.331 254.892 121.268 255.112 121.143C255.339 121.012 255.515 120.833 255.64 120.606C255.765 120.374 255.828 120.112 255.828 119.82ZM257.254 122.287C257.254 121.846 257.388 121.468 257.656 121.152C257.924 120.83 258.282 120.627 258.729 120.544L258.738 120.732C258.339 120.624 258.029 120.44 257.808 120.177C257.594 119.909 257.486 119.584 257.486 119.203C257.486 118.863 257.576 118.568 257.755 118.318C257.933 118.062 258.184 117.862 258.505 117.719C258.833 117.576 259.212 117.504 259.641 117.504C260.064 117.504 260.433 117.576 260.749 117.719C261.071 117.862 261.321 118.062 261.5 118.318C261.679 118.574 261.768 118.872 261.768 119.212C261.768 119.593 261.658 119.918 261.438 120.186C261.223 120.448 260.916 120.627 260.517 120.723L260.508 120.553C260.806 120.595 261.068 120.699 261.295 120.866C261.521 121.027 261.697 121.229 261.822 121.474C261.947 121.718 262.01 121.992 262.01 122.296C262.01 122.672 261.908 123.002 261.706 123.288C261.509 123.574 261.232 123.798 260.874 123.959C260.523 124.114 260.109 124.191 259.632 124.191C259.155 124.191 258.738 124.114 258.38 123.959C258.023 123.798 257.746 123.574 257.549 123.288C257.352 123.002 257.254 122.669 257.254 122.287ZM258.112 122.225C258.112 122.463 258.175 122.672 258.3 122.85C258.425 123.029 258.601 123.169 258.827 123.27C259.06 123.366 259.328 123.414 259.632 123.414C259.936 123.414 260.201 123.366 260.427 123.27C260.654 123.169 260.83 123.029 260.955 122.85C261.08 122.672 261.143 122.463 261.143 122.225C261.143 121.867 261.006 121.584 260.731 121.375C260.457 121.161 260.088 121.053 259.623 121.053C259.164 121.053 258.797 121.161 258.523 121.375C258.249 121.584 258.112 121.867 258.112 122.225ZM258.291 119.257C258.291 119.572 258.41 119.826 258.648 120.016C258.893 120.207 259.218 120.302 259.623 120.302C260.028 120.302 260.35 120.21 260.588 120.025C260.827 119.835 260.946 119.584 260.946 119.274C260.946 118.965 260.827 118.72 260.588 118.541C260.35 118.357 260.028 118.264 259.623 118.264C259.218 118.264 258.893 118.357 258.648 118.541C258.41 118.72 258.291 118.959 258.291 119.257Z" fill="white"/>
<defs>
<clipPath id="clip0_925_16647">
<path d="M25.9697 103.045C25.9697 100.576 27.9713 98.5742 30.4404 98.5742H52.4761C55.975 98.5742 58.8114 101.411 58.8114 104.91V125.081C58.8114 128.58 55.975 131.416 52.4761 131.416H30.4404C27.9713 131.416 25.9697 129.414 25.9697 126.945V103.045Z" fill="white"/>
</clipPath>
<clipPath id="clip1_925_16647">
<path d="M266.321 103.045C266.321 100.576 264.32 98.5742 261.851 98.5742H239.815C236.316 98.5742 233.48 101.411 233.48 104.91V125.081C233.48 128.58 236.316 131.416 239.815 131.416H261.851C264.32 131.416 266.321 129.414 266.321 126.945V103.045Z" fill="white"/>
</clipPath>
</defs>
</svg>
