<svg width="24" height="24" viewBox="0 0 24 24" fill="none" xmlns="http://www.w3.org/2000/svg">
<path d="M0.107054 8.81038C-0.0639459 8.59438 -0.0269459 8.27938 0.189054 8.10838L9.22505 0.959375C10.8611 -0.318625 13.1401 -0.320625 14.7741 0.958375L23.8111 8.10838C24.0271 8.27938 24.0641 8.59438 23.8931 8.81038C23.7931 8.93538 23.6481 9.00038 23.5001 9.00038C23.3911 9.00038 23.2811 8.96538 23.1891 8.89238L14.1541 1.74338C12.8871 0.751375 11.1121 0.752375 9.84305 1.74438L0.811054 8.89238C0.596054 9.06238 0.282054 9.02838 0.108054 8.81038H0.107054ZM4.44505 18.0034C1.91105 18.2834 5.41364e-05 20.4204 5.41364e-05 22.9734V23.5004C5.41364e-05 23.7764 0.224054 24.0004 0.500054 24.0004C0.776054 24.0004 1.00005 23.7764 1.00005 23.5004V22.9734C1.00005 20.9314 2.52805 19.2224 4.55505 18.9974C4.82905 18.9674 5.02805 18.7204 4.99705 18.4454C4.96705 18.1704 4.71605 17.9704 4.44505 18.0034ZM7.00005 13.5004C7.00005 14.8794 5.87905 16.0004 4.50005 16.0004C3.12105 16.0004 2.00005 14.8794 2.00005 13.5004C2.00005 12.1214 3.12105 11.0004 4.50005 11.0004C5.87905 11.0004 7.00005 12.1224 7.00005 13.5004ZM6.00005 13.5004C6.00005 12.6734 5.32705 12.0004 4.50005 12.0004C3.67305 12.0004 3.00005 12.6734 3.00005 13.5004C3.00005 14.3274 3.67305 15.0004 4.50005 15.0004C5.32705 15.0004 6.00005 14.3274 6.00005 13.5004ZM19.5551 18.0034C19.2841 17.9704 19.0341 18.1704 19.0031 18.4454C18.9731 18.7194 19.1711 18.9664 19.4451 18.9974C21.4711 19.2224 23.0001 20.9314 23.0001 22.9734V23.5004C23.0001 23.7764 23.2241 24.0004 23.5001 24.0004C23.7761 24.0004 24.0001 23.7764 24.0001 23.5004V22.9734C24.0001 20.4204 22.0891 18.2844 19.5551 18.0034ZM19.5001 16.0004C18.1211 16.0004 17.0001 14.8794 17.0001 13.5004C17.0001 12.1214 18.1211 11.0004 19.5001 11.0004C20.8791 11.0004 22.0001 12.1224 22.0001 13.5004C22.0001 14.8784 20.8791 16.0004 19.5001 16.0004ZM19.5001 15.0004C20.3271 15.0004 21.0001 14.3274 21.0001 13.5004C21.0001 12.6734 20.3271 12.0004 19.5001 12.0004C18.6731 12.0004 18.0001 12.6734 18.0001 13.5004C18.0001 14.3274 18.6731 15.0004 19.5001 15.0004ZM15.0001 10.0004C15.0001 11.6544 13.6541 13.0004 12.0001 13.0004C10.3461 13.0004 9.00005 11.6544 9.00005 10.0004C9.00005 8.34638 10.3461 7.00038 12.0001 7.00038C13.6541 7.00038 15.0001 8.34638 15.0001 10.0004ZM14.0001 10.0004C14.0001 8.89738 13.1031 8.00038 12.0001 8.00038C10.8971 8.00038 10.0001 8.89738 10.0001 10.0004C10.0001 11.1034 10.8971 12.0004 12.0001 12.0004C13.1031 12.0004 14.0001 11.1034 14.0001 10.0004ZM12.0001 15.0004C9.24305 15.0004 7.00005 17.2434 7.00005 20.0004V23.5004C7.00005 23.7764 7.22405 24.0004 7.50005 24.0004C7.77605 24.0004 8.00005 23.7764 8.00005 23.5004V20.0004C8.00005 17.7944 9.79405 16.0004 12.0001 16.0004C14.2061 16.0004 16.0001 17.7944 16.0001 20.0004V23.5004C16.0001 23.7764 16.2241 24.0004 16.5001 24.0004C16.7761 24.0004 17.0001 23.7764 17.0001 23.5004V20.0004C17.0001 17.2434 14.7571 15.0004 12.0001 15.0004Z" fill="white"/>
</svg>
