<svg width="24" height="24" viewBox="0 0 24 24" fill="none" xmlns="http://www.w3.org/2000/svg">
<path d="M12 24C10.783 24 9.487 23.356 8.617 22.321C4.35 17.245 2 12.869 2 10C2 4.486 6.486 0 12 0C17.514 0 22 4.486 22 10C22 12.869 19.65 17.245 15.383 22.321C14.514 23.356 13.217 24 12 24ZM12 1C7.038 1 3 5.038 3 10C3 12.595 5.327 16.852 9.383 21.678C10.057 22.481 11.085 22.999 12 22.999C12.915 22.999 13.942 22.48 14.617 21.678C18.674 16.852 21 12.595 21 10C21 5.037 16.963 1 12 1Z" fill="white"/>
<path d="M12 14C9.794 14 8 12.206 8 10C8 7.794 9.794 6 12 6C14.206 6 16 7.794 16 10C16 12.206 14.206 14 12 14ZM12 7C10.346 7 9 8.346 9 10C9 11.654 10.346 13 12 13C13.654 13 15 11.654 15 10C15 8.346 13.654 7 12 7Z" fill="white"/>
</svg>
