<svg width="56" height="17" viewBox="0 0 56 17" fill="none" xmlns="http://www.w3.org/2000/svg">
<path d="M2.55108e-05 16.3438V-0.000251293H5.49603C7.11203 -0.000251293 8.53603 0.327749 9.76803 0.983749C11 1.63975 11.96 2.58375 12.648 3.81575C13.336 5.03175 13.68 6.49575 13.68 8.20775C13.68 9.93575 13.328 11.4077 12.624 12.6237C11.936 13.8397 10.976 14.7677 9.74403 15.4077C8.51203 16.0317 7.08803 16.3438 5.47203 16.3438H2.55108e-05ZM2.78403 14.4957L1.84803 13.7037H5.30403C6.34403 13.7037 7.27203 13.5117 8.08803 13.1277C8.92003 12.7277 9.57603 12.1277 10.056 11.3277C10.552 10.5117 10.8 9.47175 10.8 8.20775C10.8 6.97575 10.56 5.95175 10.08 5.13575C9.60003 4.30375 8.94403 3.67975 8.11203 3.26375C7.29603 2.84775 6.36803 2.63975 5.32803 2.63975H1.68003L2.78403 1.72775V14.4957ZM15.7181 16.3438L18.6702 -0.000251293H21.1662L25.4382 11.6637L29.7341 -0.000251293H32.2062L35.1822 16.3438H32.3022L31.0542 8.73575C30.8782 7.66375 30.7262 6.60775 30.5982 5.56775C30.4701 4.51175 30.3822 3.44775 30.3342 2.37575H31.0781C30.7902 3.60775 30.5022 4.71975 30.2142 5.71175C29.9262 6.68775 29.5982 7.68775 29.2302 8.71175L26.5182 16.1037H24.3582L21.6462 8.71175C21.2782 7.67175 20.9502 6.66375 20.6622 5.68775C20.3742 4.71175 20.0861 3.60775 19.7981 2.37575H20.5421C20.4942 3.44775 20.4062 4.51175 20.2782 5.56775C20.1662 6.60775 20.0142 7.66375 19.8221 8.73575L18.5741 16.3438H15.7181ZM41.2318 16.3438H38.4478V-0.000251293H41.2318V16.3438ZM47.7252 9.57575V6.93575H54.1812V9.57575H47.7252ZM48.3972 16.3438H45.6132V-0.000251293H55.5252V2.63975H47.6052L48.3972 1.63175V16.3438Z" fill="black"/>
</svg>
