<svg width="107" height="17" viewBox="0 0 107 17" fill="none" xmlns="http://www.w3.org/2000/svg">
<g clip-path="url(#clip0_917_9341)">
<path d="M12.8157 14.3585C12.9795 14.8649 12.3984 15.2841 11.9696 14.9689L8.54704 12.4535C8.3539 12.3115 8.09093 12.3115 7.8978 12.4535L4.47526 14.9689C4.04645 15.2841 3.4653 14.8649 3.6291 14.3585L4.94851 10.2797C5.02135 10.0546 4.94145 9.80805 4.75036 9.66843L1.31296 7.15682C0.88482 6.84399 1.1061 6.16608 1.63635 6.16608H5.87055C6.10876 6.16608 6.3197 6.01224 6.39248 5.78543L7.70049 1.70944C7.86336 1.2019 8.58148 1.2019 8.74435 1.70944L10.0524 5.78543C10.1251 6.01224 10.3361 6.16608 10.5743 6.16608H14.808C15.3382 6.16608 15.5595 6.84395 15.1314 7.1568L11.6944 9.66842C11.5034 9.80805 11.4235 10.0545 11.4963 10.2797L12.8157 14.3585Z" fill="#FFD64A"/>
</g>
<g clip-path="url(#clip1_917_9341)">
<path d="M35.2601 14.3585C35.4239 14.8649 34.8427 15.2841 34.4139 14.9689L30.9914 12.4535C30.7982 12.3115 30.5353 12.3115 30.3421 12.4535L26.9196 14.9689C26.4908 15.2841 25.9096 14.8649 26.0734 14.3585L27.3928 10.2797C27.4657 10.0546 27.3858 9.80805 27.1947 9.66843L23.7573 7.15682C23.3292 6.84399 23.5504 6.16608 24.0807 6.16608H28.3149C28.5531 6.16608 28.764 6.01224 28.8368 5.78543L30.1448 1.70944C30.3077 1.2019 31.0258 1.2019 31.1887 1.70944L32.4967 5.78543C32.5695 6.01224 32.7804 6.16608 33.0186 6.16608H37.2523C37.7826 6.16608 38.0038 6.84395 37.5757 7.1568L34.1388 9.66842C33.9477 9.80805 33.8678 10.0545 33.9407 10.2797L35.2601 14.3585Z" fill="#FFD64A"/>
</g>
<g clip-path="url(#clip2_917_9341)">
<path d="M57.7044 14.3585C57.8682 14.8649 57.2871 15.2841 56.8583 14.9689L53.4357 12.4535C53.2426 12.3115 52.9796 12.3115 52.7865 12.4535L49.3639 14.9689C48.9351 15.2841 48.354 14.8649 48.5178 14.3585L49.8372 10.2797C49.91 10.0546 49.8301 9.80805 49.639 9.66843L46.2016 7.15682C45.7735 6.84399 45.9948 6.16608 46.525 6.16608H50.7592C50.9974 6.16608 51.2084 6.01224 51.2812 5.78543L52.5892 1.70944C52.752 1.2019 53.4702 1.2019 53.633 1.70944L54.941 5.78543C55.0138 6.01224 55.2248 6.16608 55.463 6.16608H59.6967C60.2269 6.16608 60.4482 6.84395 60.0201 7.1568L56.5831 9.66842C56.392 9.80805 56.3122 10.0545 56.385 10.2797L57.7044 14.3585Z" fill="#FFD64A"/>
</g>
<g clip-path="url(#clip3_917_9341)">
<path d="M80.1488 14.3585C80.3125 14.8649 79.7314 15.2841 79.3026 14.9689L75.8801 12.4535C75.6869 12.3115 75.4239 12.3115 75.2308 12.4535L71.8083 14.9689C71.3795 15.2841 70.7983 14.8649 70.9621 14.3585L72.2815 10.2797C72.3544 10.0546 72.2745 9.80805 72.0834 9.66843L68.646 7.15682C68.2178 6.84399 68.4391 6.16608 68.9694 6.16608H73.2036C73.4418 6.16608 73.6527 6.01224 73.7255 5.78543L75.0335 1.70944C75.1964 1.2019 75.9145 1.2019 76.0774 1.70944L77.3854 5.78543C77.4582 6.01224 77.6691 6.16608 77.9073 6.16608H82.141C82.6712 6.16608 82.8925 6.84395 82.4644 7.1568L79.0275 9.66842C78.8364 9.80805 78.7565 10.0545 78.8293 10.2797L80.1488 14.3585Z" fill="#FFD64A"/>
</g>
<g clip-path="url(#clip4_917_9341)">
<path d="M98.0303 1.83691C98.0323 1.83828 98.0344 1.83949 98.0361 1.8418C98.0378 1.84409 98.0421 1.85033 98.0459 1.8623L99.3535 5.93848C99.4928 6.37204 99.8962 6.66599 100.352 6.66602H104.585C104.597 6.66602 104.605 6.66801 104.607 6.66895C104.61 6.66992 104.612 6.67135 104.614 6.67285C104.619 6.67647 104.626 6.68494 104.631 6.69922C104.636 6.71356 104.634 6.7248 104.633 6.73047C104.632 6.7329 104.632 6.73578 104.63 6.73828C104.628 6.74071 104.623 6.74574 104.613 6.75293L101.177 9.26465C100.811 9.53164 100.659 10.0031 100.798 10.4336L102.117 14.5127C102.121 14.5245 102.121 14.5313 102.121 14.5342C102.121 14.5372 102.121 14.5396 102.12 14.542C102.118 14.5474 102.112 14.5574 102.1 14.5664C102.087 14.5753 102.076 14.5779 102.07 14.5781C102.068 14.5782 102.065 14.578 102.062 14.5771C102.06 14.5763 102.053 14.5738 102.043 14.5664L98.6201 12.0508C98.2508 11.7795 97.7482 11.7794 97.3789 12.0508L93.9561 14.5664C93.9465 14.5734 93.9403 14.5762 93.9375 14.5771C93.9347 14.578 93.9321 14.5782 93.9297 14.5781C93.9239 14.578 93.9119 14.5754 93.8994 14.5664C93.8872 14.5575 93.8819 14.5474 93.8799 14.542C93.879 14.5396 93.878 14.5372 93.8779 14.5342C93.8779 14.5313 93.8781 14.5244 93.8818 14.5127L95.2012 10.4336C95.3405 10.003 95.1877 9.53163 94.8223 9.26465L91.3857 6.75293C91.3759 6.74574 91.3709 6.74071 91.3691 6.73828C91.3674 6.73578 91.3669 6.7329 91.3662 6.73047C91.3646 6.7248 91.3635 6.71356 91.3682 6.69922C91.3729 6.68494 91.3802 6.67647 91.3848 6.67285C91.3867 6.67135 91.3888 6.66992 91.3916 6.66895C91.3943 6.66801 91.4016 6.66602 91.4141 6.66602H95.6475C96.1028 6.66602 96.5062 6.37198 96.6455 5.93848L97.9541 1.8623C97.9579 1.85035 97.9612 1.8441 97.9629 1.8418C97.9646 1.83947 97.9668 1.83828 97.9688 1.83691C97.9735 1.83366 97.9845 1.8291 98 1.8291C98.0153 1.82915 98.0255 1.83368 98.0303 1.83691Z" fill="#FFECAC" stroke="#FFD64A"/>
</g>
<defs>
<clipPath id="clip0_917_9341">
<rect width="16.4444" height="16.4444" fill="white"/>
</clipPath>
<clipPath id="clip1_917_9341">
<rect width="16.4444" height="16.4444" fill="white" transform="translate(22.4443)"/>
</clipPath>
<clipPath id="clip2_917_9341">
<rect width="16.4444" height="16.4444" fill="white" transform="translate(44.8887)"/>
</clipPath>
<clipPath id="clip3_917_9341">
<rect width="16.4444" height="16.4444" fill="white" transform="translate(67.333)"/>
</clipPath>
<clipPath id="clip4_917_9341">
<rect width="16.4444" height="16.4444" fill="white" transform="translate(89.7773)"/>
</clipPath>
</defs>
</svg>
