<svg width="161" height="79" viewBox="0 0 161 79" fill="none" xmlns="http://www.w3.org/2000/svg">
<path d="M22.7399 62.656C23.2362 62.5685 23.771 62.4837 24.3441 62.4016C24.9356 62.3162 25.5168 62.2801 26.0877 62.2931C26.6771 62.3029 27.2302 62.376 27.747 62.5123C28.2823 62.6454 28.7418 62.8866 29.1256 63.2359C29.2154 63.3149 29.3116 63.4306 29.4143 63.5831C29.5321 63.7139 29.5992 63.8253 29.6154 63.9172C29.6543 64.1378 29.5542 64.2692 29.3152 64.3113C29.1314 64.3438 28.9622 64.2978 28.8076 64.1734C28.6681 64.0274 28.4443 63.8868 28.1361 63.7516C27.8247 63.598 27.3895 63.4947 26.8305 63.4416C26.2682 63.3702 25.4723 63.4252 24.4429 63.6067C23.1377 63.8369 21.7676 64.1827 20.3326 64.6442C18.916 65.1025 17.5323 65.6403 16.1817 66.2575C14.8278 66.8564 13.5403 67.5099 12.3194 68.218C11.1169 68.9229 10.0679 69.6385 9.17244 70.3651C8.29862 71.1067 7.62107 71.8328 7.13978 72.5431C6.66173 73.2719 6.47619 73.9396 6.58315 74.5462C6.6415 74.8771 6.84476 75.1161 7.19293 75.2632C7.54109 75.4103 7.96388 75.4969 8.46129 75.5229C8.96194 75.5673 9.49125 75.5593 10.0492 75.4988C10.6256 75.4351 11.1619 75.3595 11.6583 75.272C12.3752 75.1455 13.2295 74.938 14.2211 74.6495C15.2127 74.3609 16.2682 74.0042 17.3874 73.5794C18.525 73.1513 19.6913 72.6709 20.8863 72.1379C22.0812 71.605 23.2388 71.0218 24.3592 70.3883C25.4795 69.7548 26.5274 69.0867 27.5029 68.3839C28.5 67.6963 29.3495 66.9779 30.0514 66.2286C30.7565 65.4978 31.2881 64.7501 31.6461 63.9856C32.0041 63.2212 32.1167 62.4621 31.9838 61.7084C31.8509 60.9547 31.439 60.3924 30.7481 60.0214C30.0571 59.6504 29.1878 59.3961 28.14 59.2587C27.1106 59.1179 25.9438 59.0583 24.6398 59.0798C23.3357 59.1012 22.004 59.1275 20.6448 59.1587C19.3039 59.1866 17.9766 59.1837 16.6628 59.15C15.349 59.1163 14.1584 58.9756 13.0912 58.7278C12.0423 58.4768 11.1595 58.0922 10.4426 57.5742C9.72253 57.0377 9.27821 56.2916 9.10966 55.3356C8.886 54.0672 9.09108 52.8653 9.7249 51.73C10.3771 50.5915 11.291 49.5395 12.4665 48.574C13.6388 47.5902 14.9976 46.6966 16.543 45.8934C18.0883 45.0902 19.6423 44.3897 21.2049 43.792C22.7642 43.1758 24.2479 42.6678 25.6558 42.2679C27.0822 41.8648 28.2641 41.5805 29.2016 41.4152C29.6061 41.3439 30.0229 41.2894 30.4522 41.2516C30.8967 41.1922 31.3308 41.182 31.7547 41.2209C32.1753 41.2415 32.5797 41.3314 32.9679 41.4904C33.3745 41.6461 33.7313 41.896 34.0383 42.2399C34.3886 42.6141 34.6027 43.0218 34.6805 43.463C34.7647 43.9409 34.7447 44.4183 34.6202 44.8952C34.4958 45.372 34.299 45.8143 34.0297 46.2219C33.9539 46.33 33.8766 46.4289 33.7977 46.5187C33.7371 46.6052 33.6425 46.6598 33.5138 46.6825C33.2748 46.7246 33.018 46.6656 32.7434 46.5055C32.4871 46.3422 32.3379 46.1411 32.2958 45.9021C32.2893 45.8653 32.2915 45.7702 32.3023 45.6166C32.3315 45.4598 32.3591 45.2939 32.3851 45.1187C32.4295 44.9403 32.4679 44.7819 32.5003 44.6435C32.5479 44.4834 32.5761 44.3742 32.5847 44.3158C32.6258 44.119 32.7475 44.0028 32.9497 43.9671L33.0876 43.9428C33.1017 43.8077 33.1082 43.6833 33.1071 43.5698C33.1028 43.4379 33.0893 43.3076 33.0666 43.1789C33.0245 42.9399 32.911 42.7798 32.7261 42.6987C32.5563 42.596 32.3563 42.5365 32.126 42.5202C31.914 42.5007 31.6886 42.512 31.4496 42.5542C31.2257 42.5747 31.0311 42.5995 30.8656 42.6287C30.2222 42.7422 29.4291 42.9199 28.4861 43.162C27.5431 43.4041 26.5164 43.7084 25.4058 44.0748C24.3104 44.4196 23.1603 44.8309 21.9556 45.3086C20.7694 45.7832 19.6112 46.3096 18.4811 46.888C17.3478 47.4479 16.281 48.0625 15.2807 48.7317C14.2955 49.3793 13.4411 50.0702 12.7176 50.8043C12.0125 51.5352 11.4858 52.3104 11.1375 53.13C10.7892 53.9496 10.6912 54.7914 10.8435 55.6554C10.9602 56.3172 11.3592 56.806 12.0404 57.1219C12.7183 57.4193 13.5687 57.62 14.5917 57.724C15.633 57.8247 16.8057 57.8643 18.1098 57.8429C19.4106 57.8031 20.7331 57.7784 22.0772 57.7688C23.4364 57.7377 24.7762 57.7573 26.0965 57.8278C27.4135 57.8799 28.6014 58.059 29.6599 58.3652C30.7337 58.6497 31.6354 59.0878 32.3652 59.6793C33.0951 60.2709 33.5507 61.0815 33.7322 62.1109C33.9332 63.2507 33.6952 64.3731 33.0181 65.4781C32.3594 66.5799 31.4272 67.6351 30.2213 68.6438C29.0187 69.6709 27.6329 70.6261 26.0638 71.5093C24.4979 72.4109 22.905 73.2131 21.285 73.9157C19.6651 74.6183 18.1101 75.2053 16.6199 75.6765C15.1298 76.1478 13.8608 76.4758 12.8129 76.6606C10.4599 77.0755 8.60165 77.0714 7.23815 76.6484C5.87789 76.2438 5.09241 75.4441 4.88172 74.2492C4.74558 73.4771 4.93763 72.685 5.45786 71.873C5.97809 71.061 6.70865 70.2593 7.64951 69.4679C8.59038 68.6765 9.69723 67.9127 10.9701 67.1765C12.2429 66.4403 13.5563 65.7727 14.9102 65.1739C16.2825 64.5718 17.651 64.0556 19.0157 63.6254C20.3771 63.1769 21.6185 62.8537 22.7399 62.656ZM38.0011 61.0454C37.8844 60.3837 37.9012 59.7268 38.0516 59.0747C38.2172 58.4011 38.4676 57.7788 38.8029 57.2079C38.7683 57.1192 38.7429 57.0289 38.7267 56.937C38.7072 56.8267 38.6878 56.7164 38.6683 56.6061C38.5743 56.073 38.7112 55.6129 39.0789 55.2259C39.4466 54.8388 39.8786 54.6015 40.375 54.514C40.8162 54.4362 41.226 54.4492 41.6044 54.5531C41.9829 54.657 42.3175 54.8349 42.6084 55.0869C42.9176 55.3356 43.1706 55.6417 43.3673 56.005C43.5792 56.3468 43.7225 56.729 43.797 57.1518C43.8262 57.3173 43.8478 57.4936 43.8618 57.6806C43.8726 57.8493 43.8742 58.0196 43.8666 58.1916C44.5209 57.9246 45.0897 57.5494 45.5731 57.0661C46.0565 56.5828 46.5227 56.0552 46.9715 55.4833C47.0169 55.4184 47.0672 55.3811 47.1224 55.3714C47.2694 55.3454 47.4186 55.3855 47.57 55.4914C47.7365 55.5758 47.8327 55.6915 47.8587 55.8386C47.8619 55.857 47.8441 55.917 47.8051 56.0186C47.3336 56.7841 46.7522 57.4648 46.0612 58.0605C45.3885 58.653 44.6115 59.0838 43.7302 59.3529C43.6393 59.8049 43.4992 60.2466 43.3099 60.678C43.139 61.1062 42.9232 61.4949 42.6626 61.8441C42.3987 62.175 42.0975 62.4555 41.759 62.6858C41.4238 62.9345 41.0539 63.0945 40.6495 63.1658C40.3186 63.2241 40.0023 63.2041 39.7006 63.1056C39.4174 63.0039 39.1551 62.8606 38.914 62.6757C38.6881 62.4691 38.494 62.2285 38.3318 61.9538C38.1664 61.6607 38.0562 61.358 38.0011 61.0454ZM40.2902 57.7418C40.4902 58.1235 40.7518 58.3712 41.0751 58.4847C41.4168 58.5951 41.7839 58.6346 42.1764 58.6033C42.3333 57.988 42.3631 57.4047 42.2659 56.8532C42.2108 56.5407 42.113 56.2546 41.9724 55.9951C41.8287 55.7172 41.5545 55.6139 41.1501 55.6852C40.9295 55.7241 40.7187 55.8181 40.5175 55.9673C40.3315 56.0949 40.1904 56.2619 40.0941 56.4685C40.3839 56.6069 40.5514 56.8048 40.5968 57.0622C40.6163 57.1725 40.5957 57.2709 40.5352 57.3574C40.493 57.4406 40.4113 57.5688 40.2902 57.7418ZM39.8067 58.7084C39.6325 59.1182 39.5076 59.5383 39.4318 59.9686C39.3712 60.3774 39.3831 60.8207 39.4673 61.2987C39.503 61.5009 39.5505 61.6631 39.61 61.7853C39.6878 61.9043 39.7635 61.9573 39.8371 61.9443C40.0577 61.9054 40.2745 61.7913 40.4875 61.6021C40.7006 61.4129 40.9012 61.207 41.0894 60.9842C41.2743 60.7431 41.4301 60.4977 41.5566 60.2479C41.6983 59.9765 41.8097 59.7484 41.8908 59.5635C41.0679 59.519 40.3732 59.234 39.8067 58.7084ZM48.9932 60.3582C49.7469 60.2253 50.4715 59.927 51.1668 59.4632C51.8806 58.9962 52.5522 58.4513 53.1816 57.8285C53.8294 57.2025 54.4323 56.537 54.9904 55.8321C55.5636 55.1055 56.0898 54.4346 56.5689 53.8194C56.6143 53.7545 56.6646 53.7172 56.7197 53.7075C56.8668 53.6816 57.016 53.7216 57.1674 53.8276C57.3339 53.912 57.4301 54.0277 57.4561 54.1747C57.4658 54.2299 57.4479 54.2899 57.4025 54.3548C57.0034 54.9938 56.5313 55.7025 55.9862 56.481C55.4411 57.2595 54.8328 58.0018 54.1612 58.7078C53.5079 59.4105 52.8093 60.0171 52.0653 60.5274C51.3245 61.056 50.5589 61.39 49.7684 61.5294C48.9412 61.6753 48.2188 61.5562 47.6015 61.1723C46.9992 60.7667 46.6235 60.1411 46.4744 59.2955C46.361 58.6521 46.3962 57.9919 46.5801 57.315C46.7824 56.6349 47.088 56.0029 47.4968 55.4191C47.9056 54.8352 48.3966 54.3411 48.9698 53.9368C49.5581 53.5108 50.174 53.2411 50.8174 53.1276C51.038 53.0887 51.265 53.0866 51.4986 53.1212C51.7322 53.1559 51.9538 53.2305 52.1636 53.3452C52.3885 53.4382 52.5723 53.5669 52.715 53.7313C52.8761 53.8924 52.9777 54.0925 53.0199 54.3315C53.0328 54.405 53.0447 54.5261 53.0555 54.6948C53.0631 54.8451 53.0522 54.9986 53.023 55.1554C53.0122 55.309 52.9705 55.449 52.8981 55.5755C52.844 55.6988 52.7618 55.7701 52.6515 55.7896C52.5044 55.8155 52.3368 55.7787 52.1487 55.6792C51.9757 55.5581 51.8746 55.4148 51.8454 55.2493C51.8162 55.0839 51.8163 54.9228 51.8455 54.766C51.8747 54.6092 51.8747 54.4481 51.8456 54.2826C51.8293 54.1907 51.7569 54.1561 51.6282 54.1788C51.1135 54.2696 50.6171 54.5182 50.1391 54.9247C49.6763 55.3096 49.2756 55.7783 48.937 56.3308C48.6136 56.8617 48.3643 57.4364 48.1891 58.0549C48.0289 58.6518 47.9926 59.1984 48.0801 59.6947C48.1385 60.0256 48.2233 60.2381 48.3347 60.3322C48.4428 60.4079 48.6623 60.4166 48.9932 60.3582ZM57.2852 50.2528C57.2625 50.1242 57.3166 50.0009 57.4474 49.883C57.7675 49.656 58.0157 49.4511 58.192 49.2684C58.3867 49.0824 58.5478 48.9214 58.6754 48.7851C58.8031 48.6489 58.908 48.5451 58.9901 48.4737C59.0691 48.384 59.1545 48.331 59.2464 48.3148C59.4487 48.2792 59.6779 48.343 59.9341 48.5063C60.2055 48.648 60.3623 48.8383 60.4044 49.0773C60.4271 49.206 60.352 49.3709 60.1789 49.572C60.0059 49.7731 59.7944 49.9715 59.5446 50.1672C59.31 50.3412 59.072 50.4969 58.8309 50.6342C58.5897 50.7715 58.4048 50.8515 58.2761 50.8742C58.0923 50.9066 57.8863 50.8671 57.6582 50.7557C57.4452 50.6227 57.3208 50.4551 57.2852 50.2528ZM56.2509 58.254C56.1698 57.7944 56.1456 57.3343 56.1781 56.8737C56.2289 56.4098 56.2998 55.9519 56.3907 55.4999C56.4762 55.1247 56.5541 54.7603 56.6244 54.4067C56.7132 54.0499 56.7911 53.6855 56.8582 53.3135C56.9025 53.1351 56.9285 52.9599 56.9361 52.788C56.9588 52.5944 56.9848 52.4192 57.014 52.2625C57.0519 52.0473 57.1811 51.9202 57.4017 51.8813C57.604 51.8457 57.8332 51.9095 58.0894 52.0728C58.3608 52.2145 58.5176 52.4049 58.5597 52.6438C58.5792 52.7541 58.5727 52.8785 58.5402 53.0169C58.5261 53.1521 58.5088 53.2688 58.4883 53.3672C58.4212 53.7392 58.333 54.1528 58.2237 54.608C58.1112 55.0449 58.0111 55.4985 57.9235 55.9688C57.8509 56.4176 57.7984 56.8723 57.7659 57.3329C57.7302 57.7752 57.7447 58.1801 57.8096 58.5478C57.8322 58.6765 57.8804 58.7343 57.9539 58.7214C58.4719 58.649 59.0185 58.3631 59.5938 57.8636C60.1876 57.3608 60.7591 56.7862 61.3085 56.1396C61.8763 55.4898 62.3949 54.8297 62.8643 54.1594C63.3337 53.489 63.7014 52.9408 63.9675 52.5148C64.0129 52.45 64.0724 52.411 64.1459 52.3981C64.293 52.3721 64.4422 52.4122 64.5936 52.5182C64.7601 52.6025 64.8563 52.7182 64.8822 52.8653C64.8887 52.9021 64.8801 52.9605 64.8563 53.0405C64.5913 53.58 64.2414 54.2293 63.8066 54.9884C63.3685 55.729 62.8813 56.4594 62.3448 57.1795C61.8052 57.8812 61.2309 58.4942 60.622 59.0186C60.0164 59.5613 59.3919 59.8894 58.7485 60.0029C58.1602 60.1066 57.6174 59.9843 57.1201 59.6361C56.6443 59.3029 56.3546 58.8423 56.2509 58.254ZM67.3565 50.1545C67.7977 50.0767 68.2227 50.0681 68.6314 50.1287C69.0369 50.1709 69.3937 50.2596 69.7019 50.3949C70.0284 50.5268 70.2955 50.6977 70.5031 50.9075C70.7074 51.0989 70.8307 51.3141 70.8728 51.5531C70.9149 51.7921 70.8073 51.9343 70.55 51.9797C70.3294 52.0186 70.1634 51.991 70.052 51.8969C69.959 51.7995 69.8461 51.6963 69.7131 51.587C69.5801 51.4778 69.4028 51.3859 69.1811 51.3112C68.9778 51.2333 68.6648 51.2317 68.242 51.3062C67.7272 51.397 67.2417 51.6532 66.7853 52.0748C66.3473 52.4933 65.9731 53.0047 65.6627 53.6091C65.3674 54.1919 65.157 54.8261 65.0314 55.5116C64.9059 56.1972 64.8966 56.8432 65.0036 57.4499C65.1874 57.4175 65.4432 57.2018 65.7709 56.8028C66.0954 56.3855 66.4377 55.9081 66.7978 55.3707C67.158 54.8334 67.4981 54.29 67.8183 53.7408C68.1568 53.1883 68.4104 52.7455 68.5792 52.4125C68.6365 52.3076 68.7387 52.2422 68.8858 52.2162C68.9961 52.1968 69.122 52.2125 69.2637 52.2633C69.4021 52.2958 69.527 52.3591 69.6383 52.4532C69.7648 52.5256 69.867 52.6213 69.9449 52.7403C70.0227 52.8593 70.0546 52.9863 70.0405 53.1215C69.9593 53.6286 69.8857 54.1249 69.8197 54.6104C69.7688 55.0743 69.7888 55.5636 69.8795 56.0784C69.9022 56.207 69.9687 56.2617 70.079 56.2422C70.465 56.1741 70.9138 55.9244 71.4254 55.493C71.9369 55.0617 72.4538 54.5535 72.9762 53.9686C73.4986 53.3836 73.9977 52.7744 74.4736 52.1408C74.9462 51.4888 75.3399 50.9266 75.6546 50.4541C75.7 50.3892 75.7503 50.3519 75.8055 50.3422C75.9525 50.3162 76.1001 50.3471 76.2483 50.4347C76.4148 50.5191 76.511 50.6348 76.5369 50.7818C76.5434 50.8186 76.5347 50.877 76.5109 50.957C76.2881 51.4133 75.9545 51.9934 75.5099 52.6973C75.0806 53.3795 74.5944 54.0623 74.0515 54.7457C73.5237 55.4074 72.9646 55.9988 72.3741 56.5199C71.7987 57.0194 71.2445 57.3161 70.7114 57.4101C70.1415 57.5106 69.6695 57.4138 69.2955 57.1196C68.9181 56.807 68.6365 56.3923 68.4506 55.8754C68.3056 56.1284 68.138 56.4139 67.9476 56.7318C67.754 57.0313 67.5404 57.3248 67.3068 57.6124C67.0732 57.9 66.8239 58.1525 66.559 58.3698C66.294 58.5871 66.0145 58.7217 65.7203 58.7735C65.0953 58.8837 64.5768 58.7382 64.1649 58.337C63.7681 57.9141 63.5195 57.4178 63.419 56.8479C63.312 56.2413 63.3365 55.5735 63.4923 54.8447C63.6481 54.116 63.9055 53.4261 64.2646 52.7752C64.6205 52.1059 65.0601 51.5356 65.5835 51.0642C66.1221 50.5712 66.7131 50.2679 67.3565 50.1545ZM77.1151 57.3614C77.3541 57.3193 77.6839 57.1474 78.1046 56.8457C78.5253 56.5441 79.0287 56.0668 79.6149 55.4137C80.2011 54.7607 80.8759 53.9119 81.6395 52.8675C82.4031 51.823 83.2364 50.5293 84.1395 48.9864C84.2001 48.8999 84.2579 48.8518 84.3131 48.8421C84.4602 48.8161 84.6094 48.8562 84.7608 48.9621C84.9273 49.0465 85.0235 49.1622 85.0494 49.3093C85.0527 49.3277 85.0424 49.3769 85.0186 49.4569C84.3674 50.709 83.7109 51.8767 83.049 52.9601C82.3871 54.0435 81.7376 54.9826 81.1006 55.7773C80.4668 56.5903 79.8422 57.2407 79.2269 57.7283C78.6148 58.2342 78.0146 58.5391 77.4264 58.6428C77.2977 58.6655 77.1333 58.6471 76.9333 58.5876C76.7365 58.5465 76.5283 58.441 76.3089 58.2712C76.111 58.1166 75.9218 57.9035 75.7412 57.6321C75.5607 57.3606 75.4332 57.0135 75.3586 56.5907C75.2938 56.223 75.2592 55.8121 75.255 55.358C75.2475 54.8854 75.2583 54.4096 75.2876 53.9306C75.332 53.43 75.3888 52.9461 75.4581 52.479C75.5241 51.9935 75.5907 51.5647 75.6578 51.1927C75.7509 50.6456 75.8613 49.9817 75.989 49.201C76.1318 48.3987 76.2849 47.5471 76.4483 46.6464C76.6269 45.724 76.8114 44.7817 77.0018 43.8193C77.2107 42.8537 77.4292 41.9433 77.6575 41.088C77.8825 40.2143 78.113 39.425 78.3488 38.72C78.5998 37.9933 78.8583 37.417 79.1244 36.991C79.345 36.6299 79.5905 36.3023 79.8609 36.0082C80.1464 35.6925 80.5281 35.4925 81.0061 35.4082C81.4841 35.3239 81.9209 35.4365 82.3166 35.7458C82.7091 36.0367 82.9475 36.4212 83.0318 36.8991C83.1322 37.469 83.0494 38.2892 82.7833 39.3596C82.5171 40.4301 82.1201 41.6185 81.5922 42.9246C81.0795 44.2092 80.4537 45.5516 79.715 46.9518C78.9946 48.3488 78.2229 49.6695 77.3999 50.914C77.3392 51.3227 77.2624 51.8007 77.1693 52.3478C77.073 52.8766 77 53.4297 76.9501 54.0071C76.9003 54.5845 76.8673 55.1495 76.851 55.7021C76.8314 56.2362 76.8573 56.7055 76.9286 57.11C76.961 57.2938 77.0232 57.3776 77.1151 57.3614ZM77.9745 47.8842C78.4807 46.8851 78.9804 45.8493 79.4736 44.7767C79.9636 43.6857 80.3849 42.6352 80.7376 41.6253C81.1086 40.6121 81.3899 39.6812 81.5814 38.8323C81.7697 37.9651 81.8168 37.265 81.7228 36.7319C81.7001 36.6032 81.6428 36.5469 81.5509 36.5632C81.2752 36.6118 81.0059 36.8583 80.7431 37.3027C80.4986 37.7438 80.2553 38.2985 80.0129 38.9667C79.7706 39.635 79.5429 40.3859 79.3298 41.2196C79.1318 42.0317 78.9446 42.8513 78.7682 43.6785C78.5918 44.5057 78.4366 45.2912 78.3024 46.0352C78.1649 46.7607 78.0556 47.3771 77.9745 47.8842ZM87.2832 52.9528C87.2281 52.6402 87.0799 52.3915 86.8388 52.2066C86.5977 52.0216 86.335 51.8216 86.0506 51.6063C85.7663 51.3911 85.4938 51.1359 85.2332 50.8406C84.9727 50.5454 84.7954 50.1312 84.7014 49.5981C84.6366 49.2305 84.6518 48.8866 84.747 48.5665C84.8389 48.2281 84.9725 47.9107 85.1477 47.6145C85.3229 47.3182 85.5306 47.0447 85.7707 46.7938C86.0259 46.5214 86.2752 46.2689 86.5185 46.0365C86.7986 45.7975 87.003 45.6667 87.1317 45.644C87.242 45.6246 87.3588 45.6419 87.4821 45.696C87.6053 45.7501 87.7226 45.8241 87.834 45.9182C87.9637 46.0091 88.0675 46.114 88.1454 46.2329C88.2416 46.3487 88.2994 46.4617 88.3189 46.572C88.3318 46.6455 88.2134 46.7801 87.9636 46.9758C87.7322 47.1682 87.4721 47.4131 87.1833 47.7105C86.8913 47.9894 86.6366 48.3186 86.4192 48.6981C86.2202 49.0744 86.1612 49.4923 86.2423 49.9519C86.2974 50.2644 86.4471 50.5224 86.6914 50.7257C86.9326 50.9106 87.1953 51.1107 87.4796 51.3259C87.7608 51.5228 88.0316 51.7688 88.2922 52.064C88.5527 52.3593 88.73 52.7735 88.824 53.3066C88.9537 54.0419 88.8525 54.7042 88.5204 55.2935C88.2067 55.8795 87.765 56.3839 87.195 56.8066C86.6435 57.2261 86.0222 57.5726 85.3312 57.8461C84.6586 58.1163 84.0373 58.3017 83.4675 58.4021C83.3572 58.4216 83.2361 58.4335 83.1041 58.4378C82.9755 58.4605 82.8527 58.4631 82.7359 58.4458C82.6192 58.4285 82.5175 58.3896 82.431 58.329C82.3261 58.2717 82.2607 58.1695 82.2348 58.0224C82.2056 57.857 82.2738 57.7597 82.4392 57.7305C82.5679 57.7078 82.7912 57.6305 83.1091 57.4986C83.4087 57.37 83.7569 57.1949 84.1538 56.9733C84.5355 56.7733 84.9183 56.5257 85.3022 56.2305C85.7078 55.9505 86.0685 55.631 86.3842 55.2721C86.7033 54.9315 86.9515 54.5655 87.1289 54.1741C87.3063 53.7827 87.3577 53.3756 87.2832 52.9528Z" fill="white"/>
<path d="M132.339 0.174805C132.853 0.00207224 133.409 -0.0748037 133.957 0.0966797C134.52 0.27311 134.91 0.660056 135.184 1.08496C135.447 1.49494 135.64 1.99563 135.804 2.51953C135.97 3.05167 136.125 3.67695 136.291 4.3623C136.626 5.74673 137.02 7.45695 137.667 9.49512C138.955 13.556 141.253 18.9352 146.052 25.3232C146.383 25.7648 146.294 26.391 145.853 26.7227C145.411 27.0542 144.785 26.9656 144.453 26.5244C139.504 19.937 137.109 14.3512 135.761 10.0996C135.089 7.98158 134.678 6.19813 134.348 4.83203C134.181 4.14222 134.039 3.5769 133.895 3.11523C133.869 3.03236 133.842 2.95524 133.817 2.88281C129.509 26.307 114.288 43.5968 96.4834 50.3496C95.9672 50.5452 95.3902 50.2856 95.1943 49.7695C94.9985 49.2533 95.2583 48.6765 95.7744 48.4805C112.853 42.0032 127.602 25.3648 131.825 2.65918C131.282 2.99717 130.601 3.47521 129.742 4.125C128.155 5.32635 126.076 7.01714 123.29 9.26074C120.511 11.4986 117.048 14.2706 112.716 17.6152C112.279 17.9527 111.65 17.8727 111.312 17.4355C110.975 16.9984 111.056 16.3697 111.493 16.0322C115.81 12.6994 119.262 9.93724 122.036 7.70312C124.803 5.47478 126.916 3.75534 128.535 2.53027C130.121 1.33048 131.356 0.505148 132.339 0.174805Z" fill="white"/>
</svg>
